<svg width="204" height="197" viewBox="0 0 204 197" fill="none" xmlns="http://www.w3.org/2000/svg">
<path d="M101.52 196.729C157.587 196.729 203.039 152.689 203.039 98.3643C203.039 44.0392 157.587 0 101.52 0C45.4519 0 0 44.0392 0 98.3643C0 152.689 45.4519 196.729 101.52 196.729Z" fill="#00681D"/>
<path d="M162.309 129.889C159.627 126.387 156.303 123.487 152.338 121.391C147.673 118.893 142.658 117.716 137.41 117.113C128.022 116.022 118.955 116.998 110.121 120.185C100.937 123.515 93.531 128.999 88.9536 137.756C86.6503 142.149 85.7465 146.886 85.0759 152.284C84.347 144.704 85.5716 138.015 88.9536 131.899C92.4523 125.554 96.5049 119.496 100.266 113.294C103.007 108.787 105.689 104.25 108.371 99.714C108.954 98.7378 109.362 97.6468 110.004 96.2399C110.733 103.848 109.363 110.653 106.739 117.343C127.526 98.7665 124.407 59.5758 91.6359 46.1677C106.418 45.2203 117.993 33.7358 118.955 27.4194C117.788 27.5629 116.681 27.7065 115.543 27.85C119.071 24.9215 121.958 21.7633 122.978 17.2269C123.969 12.8628 123.241 8.72844 121.666 4.53662C117.526 12.4896 110.849 17.715 103.182 22.7969C104.114 20.5861 104.931 18.9209 105.514 17.1695C106.126 15.3033 106.593 13.3509 106.943 11.4273C107.292 9.67591 107.438 7.89582 106.797 6.08702C103.152 14.1836 96.33 17.8299 87.8457 20.0406C89.4493 16.423 90.7029 13.1212 90.7321 9.36009C90.2948 9.61849 89.9157 9.70462 89.7991 9.9056C86.7378 15.533 82.0146 19.7248 76.9707 23.5434C73.6178 26.0987 70.1483 28.4817 66.7371 30.9221C61.9264 34.3388 58.7485 38.7028 58.5444 44.7609C58.4861 46.3687 58.4569 48.0052 58.3986 49.814C56.6493 50.6754 54.7541 51.6228 52.8882 52.5416C51.0514 53.4604 49.2146 54.3791 46.7947 55.585C48.4565 56.1305 49.4187 56.3889 50.3225 56.7334C51.9844 57.3938 53.7337 57.9393 55.2789 58.8293C58.2237 60.4946 59.9147 63.0212 59.3899 66.4378C59.0692 68.4476 58.6027 70.5435 57.6697 72.3523C55.8912 75.7976 53.8212 79.0707 51.7511 82.3725C49.9726 85.2149 48.8356 88.1147 48.8647 91.56C48.923 97.7903 54.8708 104.767 63.0343 104.451C70.4107 104.135 75.6587 98.9388 75.8919 91.4164C76.0669 86.3059 74.7257 81.425 73.7344 76.458C72.8597 72.0077 71.8976 67.5001 71.6352 62.9924C71.3437 58.0828 75.9211 54.7811 80.7901 55.8147C86.6795 57.1067 90.4989 60.8678 92.9771 66.0071C95.6011 71.5484 95.5136 77.3193 93.9392 83.1477C91.8983 90.6125 87.5833 96.8141 82.3645 102.413C76.0669 109.16 70.6148 116.481 66.0957 124.492C62.3929 131.095 60.8768 138.129 62.1888 145.68C63.5883 153.834 67.4368 160.811 72.3641 167.3C79.3031 176.43 87.9623 183.809 97.088 190.699C97.7586 191.188 98.4583 191.618 99.1581 192.078C97.8169 189.149 96.0967 186.594 94.7556 183.838C92.394 179.014 91.3444 173.961 92.6272 168.563C94.0558 162.649 97.642 158.227 102.453 154.753C111.374 148.322 121.433 145.336 132.483 146.054C135.019 146.226 137.614 147.087 139.947 148.15C143.445 149.786 144.816 153.088 144.145 156.82C144.028 157.567 143.97 158.313 143.854 159.519C151.93 156.131 156.099 150.332 157.527 142.092C158.985 147.03 158.49 151.652 156.915 156.103C153.825 164.773 147.294 170.2 138.635 173.703C139.218 173.961 139.393 174.104 139.539 174.104C148.285 173.071 155.72 169.453 161.405 162.764C169.598 153.145 169.919 139.737 162.28 129.803H162.251L162.309 129.889ZM53.6462 86.6791C54.6375 91.8471 56.5035 95.9241 60.6144 99.3407C55.3081 97.3884 53.1214 93.4262 53.6462 86.6791Z" fill="#F9B420"/>
<path d="M72.4515 108.213C61.6931 118.75 56.9699 131.526 58.7484 146.226C60.556 161.013 68.4863 172.181 81.7229 179.904C70.5855 179.675 55.8911 163.137 53.4129 149.097C50.06 130.033 61.6056 112.921 72.4515 108.184V108.213Z" fill="#F9B420"/>
<path d="M166.099 130.808C164.292 128.827 162.571 126.789 160.647 124.922C154.379 118.778 146.623 115.878 137.964 115.103C131.346 114.5 124.757 114.902 118.226 116.194C117.672 116.309 117.06 116.194 116.302 116.194C132.862 104.48 159.073 112.978 166.099 130.808Z" fill="#F9B420"/>
<path d="M83.1518 60.0932C86.3006 61.1555 87.8167 63.0217 89.012 65.2325C91.4903 69.7975 91.6069 74.7933 90.9655 79.7029C90.1491 86.0767 87.8458 91.9625 83.8224 97.1018C83.0643 98.078 82.1313 98.9393 80.8193 99.5135C81.2275 98.6522 81.5774 97.7908 82.0147 96.9582C84.3763 92.4506 86.3006 87.7994 87.2919 82.8036C88.7496 75.3675 88.1665 68.2471 83.8807 61.701C83.6766 61.3852 83.5599 60.9832 83.1226 60.0645L83.1518 60.0932Z" fill="#F9B420"/>
<path d="M112.19 153.691C98.9538 160.639 94.9595 173.846 101.694 186.249C97.2336 183.407 94.8429 175.052 96.5047 168.132C98.1374 161.357 104.523 154.408 112.19 153.691Z" fill="#F9B420"/>
</svg>
