<svg width="94" height="93" viewBox="0 0 94 93" fill="none" xmlns="http://www.w3.org/2000/svg">
<g clip-path="url(#clip0_2207_9327)">
<path d="M17.2708 67.3321C16.7611 67.3321 16.3684 67.1999 16.0843 66.9436C15.8002 66.6791 15.6582 66.3236 15.6582 65.8607C15.6582 65.3977 15.8002 65.0257 16.0843 64.7695C16.3684 64.5132 16.7611 64.3975 17.2708 64.3975C17.7805 64.3975 18.1899 64.5297 18.4657 64.7695C18.7414 65.0257 18.8834 65.3812 18.8834 65.8607C18.8834 66.3401 18.7414 66.6791 18.4657 66.9436C18.1899 67.2081 17.7889 67.3321 17.2708 67.3321ZM17.2708 80.6084C16.8363 80.6084 16.5021 80.4761 16.2682 80.2116C16.0342 79.9471 15.9256 79.5751 15.9256 79.0956V70.9199C15.9256 70.4321 16.0426 70.0519 16.2682 69.7956C16.4938 69.5393 16.8363 69.4071 17.2708 69.4071C17.7053 69.4071 18.0395 69.5393 18.2818 69.7956C18.5242 70.0519 18.6411 70.4321 18.6411 70.9199V79.0956C18.6411 79.5751 18.5242 79.9471 18.2986 80.2116C18.073 80.4761 17.722 80.6084 17.2792 80.6084H17.2708Z" fill="#00681D"/>
<path d="M22.4677 75.5909C22.1502 75.5909 21.8828 75.4835 21.674 75.2685C21.4651 75.0536 21.3564 74.7891 21.3564 74.4749C21.3564 74.1608 21.4651 73.8797 21.674 73.6731C21.8828 73.4664 22.1502 73.3672 22.4677 73.3672H27.1051C27.4059 73.3672 27.6649 73.4747 27.8738 73.6731C28.0827 73.8797 28.1913 74.1525 28.1913 74.4749C28.1913 74.7973 28.0827 75.0536 27.8738 75.2685C27.6649 75.4835 27.4059 75.5909 27.1051 75.5909H22.4677Z" fill="#00681D"/>
<path d="M32.2603 80.6252C31.8258 80.6252 31.4916 80.5012 31.2576 80.2614C31.0237 80.0217 30.915 79.6662 30.915 79.2033V65.9766C30.915 65.5137 31.032 65.1665 31.2576 64.9268C31.4832 64.687 31.8258 64.5713 32.2603 64.5713C32.6948 64.5713 33.029 64.687 33.2713 64.9268C33.5136 65.1665 33.6306 65.5137 33.6306 65.9766V74.1937H33.6724L37.2653 70.3166C37.5577 70.019 37.8084 69.7876 38.0256 69.6222C38.2429 69.4569 38.5437 69.3825 38.9197 69.3825C39.2957 69.3825 39.5797 69.4817 39.7803 69.6801C39.9808 69.8785 40.0727 70.1265 40.0727 70.4076C40.0727 70.6886 39.939 70.978 39.68 71.259L35.8949 75.3593V74.202L40.056 78.79C40.315 79.071 40.4404 79.3604 40.4153 79.6497C40.3902 79.939 40.2733 80.1788 40.056 80.3606C39.8388 80.5425 39.563 80.6334 39.2288 80.6334C38.8277 80.6334 38.5019 80.5508 38.2596 80.3937C38.0173 80.2366 37.7582 79.9804 37.4658 79.658L33.6807 75.6073H33.6389V79.2198C33.6389 80.1705 33.1794 80.6417 32.2686 80.6417V80.6252H32.2603Z" fill="#00681D"/>
<path d="M46.4236 80.6662C45.538 80.6662 44.8027 80.5009 44.2261 80.1702C43.6412 79.8396 43.2151 79.3353 42.931 78.6657C42.6469 77.9961 42.5049 77.1694 42.5049 76.1692V70.7793C42.5049 70.2998 42.6219 69.9526 42.8475 69.7212C43.0814 69.4897 43.4156 69.374 43.8501 69.374C44.2846 69.374 44.6188 69.4897 44.8611 69.7212C45.1035 69.9526 45.2204 70.2998 45.2204 70.7793V76.2105C45.2204 76.9793 45.3708 77.5497 45.68 77.9217C45.9891 78.2937 46.4654 78.4756 47.1422 78.4756C47.8691 78.4756 48.4624 78.2193 48.9303 77.7068C49.3899 77.1942 49.6322 76.5164 49.6322 75.6649V70.7628C49.6322 70.2833 49.7492 69.9361 49.9748 69.7046C50.2087 69.4732 50.5429 69.3574 50.9774 69.3574C51.4119 69.3574 51.7545 69.4732 51.9884 69.7046C52.2308 69.9361 52.3477 70.2833 52.3477 70.7628V79.1782C52.3477 80.1289 51.9049 80.6001 51.0192 80.6001C50.5931 80.6001 50.2755 80.4761 50.0416 80.2364C49.8076 79.9966 49.699 79.6412 49.699 79.1782V77.4918L49.9998 78.1614C49.699 78.9633 49.2311 79.5833 48.6211 80.0049C48.0028 80.4348 47.2759 80.6497 46.4404 80.6497L46.4236 80.6662Z" fill="#00681D"/>
<path d="M56.5249 80.6252C56.0904 80.6252 55.7562 80.5012 55.5223 80.2614C55.2883 80.0217 55.1797 79.6662 55.1797 79.2033V65.9766C55.1797 65.5137 55.2967 65.1665 55.5223 64.9268C55.7479 64.687 56.0904 64.5713 56.5249 64.5713C56.9594 64.5713 57.2936 64.687 57.536 64.9268C57.7783 65.1665 57.8952 65.5137 57.8952 65.9766V74.1937H57.937L61.5299 70.3166C61.8224 70.019 62.073 69.7876 62.2903 69.6222C62.5075 69.4569 62.8083 69.3825 63.1843 69.3825C63.5603 69.3825 63.8444 69.4817 64.0449 69.6801C64.2455 69.8785 64.3374 70.1265 64.3374 70.4076C64.3374 70.6886 64.2037 70.978 63.9447 71.259L60.1596 75.3593V74.202L64.3207 78.79C64.5797 79.071 64.6967 79.3604 64.68 79.6497C64.6549 79.939 64.5379 80.1788 64.3207 80.3606C64.1034 80.5425 63.8277 80.6334 63.4935 80.6334C63.0924 80.6334 62.7665 80.5508 62.5242 80.3937C62.2819 80.2366 62.0229 79.9804 61.7304 79.658L57.9454 75.6073H57.9036V79.2198C57.9036 80.1705 57.444 80.6417 56.5333 80.6417V80.6252H56.5249Z" fill="#00681D"/>
<path d="M70.6883 80.6662C69.8026 80.6662 69.0673 80.5009 68.4908 80.1702C67.9059 79.8396 67.4797 79.3353 67.1957 78.6657C66.9116 77.9961 66.7695 77.1694 66.7695 76.1692V70.7793C66.7695 70.2998 66.8865 69.9526 67.1121 69.7212C67.3461 69.4897 67.6803 69.374 68.1148 69.374C68.5493 69.374 68.8835 69.4897 69.1258 69.7212C69.3681 69.9526 69.4851 70.2998 69.4851 70.7793V76.2105C69.4851 76.9793 69.6355 77.5497 69.9446 77.9217C70.2454 78.2937 70.7301 78.4756 71.4069 78.4756C72.1338 78.4756 72.727 78.2193 73.1949 77.7068C73.6545 77.1942 73.8968 76.5164 73.8968 75.6649V70.7628C73.8968 70.2833 74.0138 69.9361 74.2394 69.7046C74.4733 69.4732 74.8076 69.3574 75.2421 69.3574C75.6766 69.3574 76.0191 69.4732 76.2531 69.7046C76.4954 69.9361 76.6124 70.2833 76.6124 70.7628V79.1782C76.6124 80.1289 76.1695 80.6001 75.2838 80.6001C74.8577 80.6001 74.5402 80.4761 74.3062 80.2364C74.0723 79.9966 73.9637 79.6412 73.9637 79.1782V77.4918L74.2645 78.1614C73.9637 78.9633 73.4958 79.5833 72.8858 80.0049C72.2758 80.4265 71.5406 80.6497 70.705 80.6497L70.6883 80.6662Z" fill="#00681D"/>
<path d="M47.0003 63.0006C63.0685 63.0006 76.0943 50.3206 76.0943 34.679C76.0943 19.0374 63.0685 6.35742 47.0003 6.35742C30.9321 6.35742 17.9062 19.0374 17.9062 34.679C17.9062 50.3206 30.9321 63.0006 47.0003 63.0006Z" fill="#00681D"/>
<path d="M64.4221 43.7563C63.6534 42.7478 62.7008 41.9129 61.5645 41.3094C60.2276 40.5902 58.7904 40.2513 57.2864 40.0777C54.596 39.7635 51.9974 40.0446 49.4656 40.9622C46.8336 41.9211 44.7113 43.5001 43.3995 46.0214C42.7394 47.2862 42.4804 48.6502 42.2882 50.2043C42.0793 48.0219 42.4303 46.0958 43.3995 44.335C44.4022 42.5081 45.5636 40.7638 46.6415 38.9782C47.4269 37.6803 48.1956 36.3742 48.9643 35.0681C49.1314 34.787 49.2484 34.4729 49.4322 34.0678C49.6411 36.2585 49.2484 38.2177 48.4964 40.1438C54.4539 34.7953 53.5599 23.5113 44.1682 19.6507C48.4045 19.3779 51.7216 16.0713 51.9974 14.2526C51.6632 14.2939 51.3456 14.3353 51.0198 14.3766C52.0308 13.5334 52.858 12.6241 53.1504 11.3179C53.4345 10.0614 53.2256 8.871 52.7744 7.66406C51.588 9.95393 49.6745 11.4585 47.477 12.9217C47.7444 12.2851 47.9784 11.8057 48.1455 11.3014C48.3209 10.7641 48.4546 10.2019 48.5549 9.64806C48.6552 9.1438 48.6969 8.63126 48.5131 8.11046C47.4687 10.4417 45.5135 11.4915 43.082 12.1281C43.5416 11.0865 43.9008 10.1358 43.9092 9.05286C43.7839 9.12726 43.6752 9.15206 43.6418 9.20993C42.7645 10.8302 41.4109 12.0371 39.9654 13.1366C39.0045 13.8723 38.0102 14.5585 37.0326 15.2611C35.6539 16.2449 34.7432 17.5014 34.6847 19.2457C34.668 19.7086 34.6596 20.1798 34.6429 20.7006C34.1416 20.9486 33.5984 21.2214 33.0637 21.4859C32.5373 21.7505 32.0109 22.015 31.3174 22.3622C31.7936 22.5193 32.0694 22.5937 32.3284 22.6929C32.8047 22.883 33.306 23.0401 33.7488 23.2963C34.5928 23.7758 35.0774 24.5033 34.927 25.487C34.8351 26.0657 34.7014 26.6691 34.434 27.1899C33.9243 28.1819 33.3311 29.1243 32.7378 30.075C32.2281 30.8934 31.9023 31.7283 31.9106 32.7203C31.9273 34.5142 33.6319 36.523 35.9714 36.4321C38.0854 36.3411 39.5894 34.8449 39.6562 32.679C39.7064 31.2075 39.322 29.8022 39.0379 28.3721C38.7873 27.0907 38.5115 25.7929 38.4363 24.495C38.3528 23.0814 39.6646 22.1307 41.06 22.4283C42.7478 22.8003 43.8424 23.8833 44.5526 25.363C45.3046 26.9585 45.2795 28.6201 44.8283 30.2982C44.2434 32.4475 43.0068 34.2331 41.5112 35.8451C39.7064 37.7878 38.1439 39.8958 36.8488 42.2022C35.7876 44.1035 35.3531 46.1289 35.7291 48.303C36.1302 50.6507 37.2331 52.6595 38.6452 54.5278C40.6338 57.1566 43.1154 59.2811 45.7307 61.2651C45.9229 61.4057 46.1234 61.5297 46.324 61.6619C45.9396 60.8187 45.4466 60.083 45.0623 59.2894C44.3855 57.9006 44.0847 56.4457 44.4523 54.8915C44.8617 53.1886 45.8895 51.9155 47.2681 50.9153C49.8249 49.0635 52.7076 48.2038 55.8744 48.4105C56.6013 48.4601 57.3449 48.7081 58.0134 49.0139C59.016 49.4851 59.4088 50.4358 59.2166 51.5105C59.1832 51.7254 59.1664 51.9403 59.133 52.2875C61.4475 51.3121 62.6424 49.6422 63.0518 47.2697C63.4696 48.6915 63.3275 50.0225 62.8763 51.3038C61.9906 53.8003 60.119 55.3627 57.6374 56.3713C57.8045 56.4457 57.8546 56.487 57.8964 56.487C60.4031 56.1894 62.5337 55.1478 64.1631 53.2217C66.511 50.4523 66.6029 46.5918 64.4137 43.7315H64.4054L64.4221 43.7563ZM33.2809 31.315C33.565 32.803 34.0998 33.9769 35.2779 34.9606C33.7572 34.3985 33.1305 33.2577 33.2809 31.315Z" fill="#F9B420"/>
<path d="M38.6703 37.5151C35.5871 40.549 34.2335 44.2276 34.7432 48.4602C35.2612 52.7175 37.5339 55.9332 41.3274 58.157C38.1355 58.0908 33.9243 53.3292 33.2141 49.2868C32.2532 43.7978 35.562 38.8708 38.6703 37.5068V37.5151Z" fill="#F9B420"/>
<path d="M65.5086 44.0204C64.9905 43.45 64.4976 42.863 63.9461 42.3257C62.1497 40.5566 59.9271 39.7217 57.4455 39.4985C55.5488 39.3249 53.6604 39.4406 51.7888 39.8126C51.63 39.8457 51.4545 39.8126 51.2373 39.8126C55.9833 36.4398 63.4949 38.8868 65.5086 44.0204Z" fill="#F9B420"/>
<path d="M41.7368 23.6606C42.6392 23.9665 43.0737 24.5038 43.4163 25.1403C44.1265 26.4547 44.1599 27.8931 43.9761 29.3067C43.7421 31.1419 43.082 32.8366 41.929 34.3163C41.7117 34.5974 41.4444 34.8454 41.0684 35.0107C41.1853 34.7627 41.2856 34.5147 41.4109 34.275C42.0877 32.9771 42.6392 31.6379 42.9233 30.1995C43.3411 28.0585 43.174 26.0083 41.9457 24.1235C41.8872 24.0326 41.8538 23.9169 41.7284 23.6523L41.7368 23.6606Z" fill="#F9B420"/>
<path d="M50.0592 50.6094C46.2658 52.6099 45.1211 56.4126 47.0512 59.9838C45.7728 59.1654 45.0876 56.7598 45.5639 54.7675C46.0318 52.8166 47.8617 50.816 50.0592 50.6094Z" fill="#F9B420"/>
</g>
<defs>
<clipPath id="clip0_2207_9327">
<rect width="94" height="93" fill="white"/>
</clipPath>
</defs>
</svg>
