<svg width="233" height="231" viewBox="0 0 233 231" fill="none" xmlns="http://www.w3.org/2000/svg">
<g opacity="0.3">
<path d="M190.08 126.657L183.51 133.228L190.08 139.798L196.651 133.228L190.08 126.657Z" stroke="#243B25" stroke-width="0.240606" stroke-linecap="round" stroke-linejoin="round"/>
<path d="M48.3606 10.5232L41.79 17.0938L48.3606 23.6643L54.9312 17.0938L48.3606 10.5232Z" stroke="#243B25" stroke-width="0.240606" stroke-linecap="round" stroke-linejoin="round"/>
<path d="M36.4222 147.541L32.3594 151.604L36.4222 155.666L40.485 151.604L36.4222 147.541Z" stroke="#243B25" stroke-width="0.240606" stroke-linecap="round" stroke-linejoin="round"/>
<path d="M13.4583 81.5993L9.39551 85.6621L13.4583 89.7249L17.5211 85.6621L13.4583 81.5993Z" stroke="#243B25" stroke-width="0.240606" stroke-linecap="round" stroke-linejoin="round"/>
<path d="M179.572 34.571L175.509 38.6338L179.572 42.6966L183.634 38.6338L179.572 34.571Z" stroke="#243B25" stroke-width="0.240606" stroke-linecap="round" stroke-linejoin="round"/>
<path d="M45.5326 152.058L39.7549 157.836L45.5326 163.614L51.3104 157.836L45.5326 152.058Z" stroke="#243B25" stroke-width="0.240606" stroke-linecap="round" stroke-linejoin="round"/>
<path d="M160.755 145.898L156.692 149.961L160.755 154.024L164.818 149.961L160.755 145.898Z" stroke="#243B25" stroke-width="0.240606" stroke-linecap="round" stroke-linejoin="round"/>
<path d="M191.924 26.2727L184.148 34.0479L191.924 41.823L199.699 34.0479L191.924 26.2727Z" stroke="#243B25" stroke-width="0.240606" stroke-linecap="round" stroke-linejoin="round"/>
<path d="M108.595 209.869L104.532 213.932L108.595 217.994L112.658 213.932L108.595 209.869Z" stroke="#243B25" stroke-width="0.240606" stroke-linecap="round" stroke-linejoin="round"/>
<path d="M27.6906 87.3021C30.9515 87.3021 33.5951 84.6586 33.5951 81.3976C33.5951 78.1367 30.9515 75.4932 27.6906 75.4932C24.4297 75.4932 21.7861 78.1367 21.7861 81.3976C21.7861 84.6586 24.4297 87.3021 27.6906 87.3021Z" stroke="#243B25" stroke-width="0.240606" stroke-linecap="round" stroke-linejoin="round"/>
<path d="M198.94 105.343C202.02 105.343 204.517 102.846 204.517 99.7657C204.517 96.6855 202.02 94.1885 198.94 94.1885C195.859 94.1885 193.362 96.6855 193.362 99.7657C193.362 102.846 195.859 105.343 198.94 105.343Z" stroke="#243B25" stroke-width="0.240606" stroke-linecap="round" stroke-linejoin="round"/>
<path d="M218.948 64.6653C220.76 64.6653 222.23 63.1959 222.23 61.3834C222.23 59.5709 220.76 58.1016 218.948 58.1016C217.135 58.1016 215.666 59.5709 215.666 61.3834C215.666 63.1959 217.135 64.6653 218.948 64.6653Z" stroke="#243B25" stroke-width="0.240606" stroke-linecap="round" stroke-linejoin="round"/>
<path d="M153.344 18.4065C153.345 18.0159 153.23 17.6337 153.014 17.3086C152.797 16.9834 152.489 16.7297 152.129 16.5798C151.768 16.4299 151.371 16.3904 150.988 16.4664C150.605 16.5424 150.253 16.7304 149.976 17.0066C149.7 17.2828 149.512 17.6348 149.436 18.018C149.36 18.4011 149.4 18.7982 149.55 19.1589C149.699 19.5196 149.953 19.8277 150.278 20.0441C150.603 20.2606 150.986 20.3756 151.376 20.3746C151.898 20.3746 152.399 20.1673 152.768 19.7982C153.137 19.4291 153.344 18.9285 153.344 18.4065Z" stroke="#243B25" stroke-width="0.240606" stroke-linecap="round" stroke-linejoin="round"/>
<path d="M70.6693 132.574C71.7563 132.574 72.6375 131.693 72.6375 130.606C72.6375 129.519 71.7563 128.638 70.6693 128.638C69.5823 128.638 68.7012 129.519 68.7012 130.606C68.7012 131.693 69.5823 132.574 70.6693 132.574Z" stroke="#243B25" stroke-width="0.240606" stroke-linecap="round" stroke-linejoin="round"/>
<path d="M24.0806 186.379C25.7124 186.379 27.0353 185.056 27.0353 183.424C27.0353 181.793 25.7124 180.47 24.0806 180.47C22.4488 180.47 21.126 181.793 21.126 183.424C21.126 185.056 22.4488 186.379 24.0806 186.379Z" stroke="#243B25" stroke-width="0.240606" stroke-linecap="round" stroke-linejoin="round"/>
<path d="M202.875 178.501C202.875 177.982 202.721 177.473 202.432 177.041C202.143 176.609 201.732 176.272 201.252 176.074C200.772 175.875 200.243 175.823 199.733 175.925C199.223 176.027 198.755 176.277 198.388 176.645C198.021 177.013 197.771 177.482 197.67 177.992C197.569 178.502 197.622 179.03 197.821 179.51C198.021 179.99 198.359 180.4 198.791 180.688C199.224 180.977 199.732 181.13 200.252 181.129C200.597 181.129 200.939 181.061 201.257 180.929C201.576 180.797 201.865 180.603 202.109 180.359C202.352 180.115 202.545 179.825 202.677 179.507C202.808 179.188 202.876 178.846 202.875 178.501Z" stroke="#243B25" stroke-width="0.240606" stroke-linecap="round" stroke-linejoin="round"/>
<path d="M181.879 8.9125C181.88 8.39264 181.727 7.88419 181.438 7.45148C181.15 7.01877 180.74 6.68126 180.26 6.48166C179.78 6.28206 179.252 6.22934 178.742 6.33017C178.232 6.43101 177.763 6.68087 177.395 7.04812C177.027 7.41538 176.777 7.88353 176.675 8.39333C176.573 8.90313 176.625 9.43167 176.824 9.91205C177.022 10.3924 177.359 10.8031 177.791 11.092C178.223 11.3809 178.732 11.5351 179.251 11.5351C179.596 11.5357 179.938 11.4684 180.257 11.3369C180.575 11.2053 180.865 11.0123 181.109 10.7687C181.353 10.5251 181.547 10.2357 181.679 9.91724C181.811 9.59874 181.879 9.25731 181.879 8.9125Z" stroke="#243B25" stroke-width="0.240606" stroke-linecap="round" stroke-linejoin="round"/>
</g>
<path d="M76.8981 109.61L58.1982 119.778" stroke="#263238" stroke-width="0.721818" stroke-linecap="round" stroke-linejoin="round"/>
<path d="M41.4688 54.166L61.4824 62.0386" stroke="#263238" stroke-width="0.721818" stroke-linecap="round" stroke-linejoin="round"/>
<path d="M65.4199 9.54785L78.2153 30.2159" stroke="#263238" stroke-width="0.721818" stroke-linecap="round" stroke-linejoin="round"/>
<path d="M109.05 0.361328L108.396 16.7658" stroke="#263238" stroke-width="0.721818" stroke-linecap="round" stroke-linejoin="round"/>
<path d="M146.449 39.4017L163.181 22.6699" stroke="#263238" stroke-width="0.721818" stroke-linecap="round" stroke-linejoin="round"/>
<path d="M169.741 73.1924L184.178 68.2744" stroke="#263238" stroke-width="0.721818" stroke-linecap="round" stroke-linejoin="round"/>
<path d="M155.962 109.938L168.098 116.825" stroke="#263238" stroke-width="0.721818" stroke-linecap="round" stroke-linejoin="round"/>
<path d="M61.1533 39.0752L70.9941 46.6206" stroke="#263238" stroke-width="0.721818" stroke-linecap="round" stroke-linejoin="round"/>
<path d="M167.117 53.1836L156.617 58.1016" stroke="#263238" stroke-width="0.721818" stroke-linecap="round" stroke-linejoin="round"/>
<path d="M64.758 88.9424L53.6035 92.2194" stroke="#263238" stroke-width="0.721818" stroke-linecap="round" stroke-linejoin="round"/>
<path d="M160.552 93.2061L165.802 94.5198" stroke="#263238" stroke-width="0.721818" stroke-linecap="round" stroke-linejoin="round"/>
<path d="M165.046 73.6741C163.189 72.3893 156.202 73.5298 151.779 77.0955C147.357 80.6613 146.361 81.9462 146.361 81.9462C146.361 81.9462 144.364 67.967 144.364 67.5387C144.364 67.1104 141.51 40.8651 140.938 37.0154C140.365 33.1657 139.494 27.4585 138.657 26.1737C137.819 24.8889 134.379 24.7301 133.238 25.322L132.098 25.8898C132.098 25.8898 132.666 15.9046 131.525 13.4793C130.385 11.054 126.819 12.4832 125.818 13.7681C125.107 14.7804 124.532 15.8823 124.11 17.0451C124.11 17.0451 120.828 15.9046 118.975 19.6148C117.123 23.3249 115.693 26.602 115.409 30.1678C115.125 33.7335 113.552 38.3002 113.552 38.3002C113.552 38.3002 111.699 35.3023 109.702 37.0154C107.705 38.7285 105.424 45.4318 104.852 50.2824C104.279 55.133 103.711 67.967 103.711 67.967C103.711 67.967 102.571 73.8137 101.998 78.5247C101.425 83.2358 101.858 102.773 103.995 110.901C106.132 119.028 108.99 124.168 108.99 124.168C108.99 124.168 113.98 140.567 114.692 142.853C115.405 145.139 123.253 176.23 123.253 176.23L146.645 146.539C146.645 146.539 140.798 130.423 139.513 126.713C138.228 123.003 137.372 121.863 137.372 121.863C137.372 121.863 144.503 111.757 148.358 108.74C152.212 105.723 154.205 95.7473 155.201 91.3394C156.197 86.9315 160.335 80.7864 162.621 78.7894C164.907 76.7924 166.899 74.959 165.046 73.6741ZM112.267 66.8265C111.844 66.8265 111.983 61.2637 111.983 54.5604C111.983 47.8571 113.124 44.8592 113.124 44.8592C112.556 47.8571 113.696 62.6881 113.696 63.689C113.696 64.6899 112.695 66.8265 112.267 66.8265Z" fill="white" stroke="#00681D" stroke-width="0.240606" stroke-linecap="round" stroke-linejoin="round"/>
<path d="M133.839 124.321C135.624 123.417 135.947 122.454 135.947 122.454" stroke="#00681D" stroke-width="0.240606" stroke-linecap="round" stroke-linejoin="round"/>
<path d="M119.826 121.035C119.826 121.035 127.675 126.17 131.524 125.169" stroke="#00681D" stroke-width="0.240606" stroke-linecap="round" stroke-linejoin="round"/>
<path d="M146.358 81.9463C146.358 81.9463 143.36 86.6525 142.648 88.3657C141.936 90.0788 141.508 91.5032 140.242 92.2153C138.977 92.9275 137.249 93.9285 137.249 93.9285" stroke="#00681D" stroke-width="0.240606" stroke-linecap="round" stroke-linejoin="round"/>
<path d="M137.742 83.3418C134.114 85.026 129.008 87.9999 126.106 92.3597" stroke="#00681D" stroke-width="0.240606" stroke-linecap="round" stroke-linejoin="round"/>
<path d="M141.939 81.6621C141.939 81.6621 140.89 81.9845 139.302 82.6245" stroke="#00681D" stroke-width="0.240606" stroke-linecap="round" stroke-linejoin="round"/>
<path d="M124.536 94.2119C124.536 94.2119 121.967 98.9182 120.826 102.628" stroke="#00681D" stroke-width="0.240606" stroke-linecap="round" stroke-linejoin="round"/>
<path d="M124.111 17.0449C124.111 17.0449 123.394 23.036 122.398 32.0106C121.402 40.9852 120.829 45.4172 120.955 51.1243C121.08 56.8315 122.682 61.8457 122.547 62.5483" stroke="#00681D" stroke-width="0.240606" stroke-linecap="round" stroke-linejoin="round"/>
<path d="M132.1 25.8896C131.839 28.7373 131.839 31.6028 132.1 34.4504C132.524 39.2962 131.672 48.2852 131.672 51.7067C131.672 55.1281 131.811 60.2674 131.956 61.8121C132.057 62.784 132.4 63.7151 132.952 64.5213" stroke="#00681D" stroke-width="0.240606" stroke-linecap="round" stroke-linejoin="round"/>
<path d="M134.81 65.4023C134.81 65.4023 135.522 66.6824 140.228 66.846" stroke="#00681D" stroke-width="0.240606" stroke-linecap="round" stroke-linejoin="round"/>
<path d="M123.99 61.9756C123.99 61.9756 127.412 62.6878 129.697 62.2643" stroke="#00681D" stroke-width="0.240606" stroke-linecap="round" stroke-linejoin="round"/>
<path d="M111.555 67.9668C111.555 67.9668 111.555 69.4104 107.422 70.676" stroke="#00681D" stroke-width="0.240606" stroke-linecap="round" stroke-linejoin="round"/>
<path d="M119.686 64.1173C120.114 63.8333 121.822 63.2607 122.25 61.2637" stroke="#00681D" stroke-width="0.240606" stroke-linecap="round" stroke-linejoin="round"/>
<path d="M119.933 85.9642C119.933 85.9642 128.801 82.716 134.417 81.5322" stroke="#00681D" stroke-width="0.240606" stroke-linecap="round" stroke-linejoin="round"/>
<path d="M145.109 230.337H221.785C216.429 223.268 196.887 197.509 195.612 196.234C194.134 194.756 187.628 193.871 187.628 193.871L168.414 177.904L144.469 138.291L121.702 169.926L117.853 154.527L109.287 186.48C109.287 186.48 140.33 224.322 141.528 225.799C141.74 226.083 143.078 227.782 145.109 230.337Z" fill="#00681D" stroke="#00681D" stroke-width="0.240606" stroke-linecap="round" stroke-linejoin="round"/>
<path d="M85.0706 119.438C85.0706 119.438 78.7234 103.182 77.1931 100.189C75.6629 97.1961 67.3572 84.1985 66.9385 80.6761C66.5199 77.1536 65.2206 71.2828 63.8828 68.8286C62.545 66.3744 66.5295 64.7672 69.821 67.8662C73.1125 70.9652 75.1143 76.0468 75.0662 77.4904C75.0181 78.9341 82.4576 84.3958 82.4576 84.3958L83.8098 71.8843C83.8098 71.8843 85.2534 40.8029 84.9503 36.164C84.6471 31.5251 84.3488 21.6747 88.03 21.2945C91.7113 20.9144 92.2791 23.8305 92.2791 23.8305C92.2791 23.8305 92.4139 16.4872 96.5042 16.9636C99.632 17.3245 100.835 20.2744 101.287 21.6891C101.74 23.1039 102.284 24.8747 102.284 24.8747C102.284 24.8747 104.863 23.1231 107.38 27.2808C108.823 29.6869 111.893 37.213 112.389 39.1282C112.885 41.0435 113.039 41.7364 113.039 41.7364C114.125 41.7644 115.178 42.1147 116.065 42.7427C116.952 43.3708 117.632 44.2482 118.019 45.2637C119.549 48.9065 121.724 58.4152 123.827 66.2734C125.114 71.284 125.791 76.4318 125.844 81.6048C125.844 81.6048 126.667 106.902 124.973 114.948C123.279 122.994 120.093 129.866 119.439 130.506C118.784 131.146 109.377 158.936 109.377 158.936L76.7312 146.833C76.7312 146.833 83.5307 130.13 84.6038 126.487C85.2496 124.196 85.4086 121.794 85.0706 119.438Z" fill="white" stroke="#263238" stroke-width="0.240606" stroke-linecap="round" stroke-linejoin="round"/>
<path d="M78.2393 95.7236C78.2616 96.5885 78.4008 97.4465 78.6531 98.2741" stroke="#263238" stroke-width="0.240606" stroke-linecap="round" stroke-linejoin="round"/>
<path d="M81.4573 85.7812C80.1116 87.553 79.1571 89.59 78.6567 91.7579C78.4789 92.4678 78.3551 93.19 78.2861 93.9185" stroke="#263238" stroke-width="0.240606" stroke-linecap="round" stroke-linejoin="round"/>
<path d="M92.279 23.8301C92.279 23.8301 92.8468 33.9355 93.2414 38.892C93.636 43.8485 93.8044 51.5767 93.8381 56.6391C93.8718 61.7014 93.2559 68.0583 92.9094 69.4393C92.6084 70.5091 92.2354 71.5574 91.793 72.5768" stroke="#263238" stroke-width="0.240606" stroke-linecap="round" stroke-linejoin="round"/>
<path d="M102.283 24.8652C101.807 25.4614 101.465 26.1526 101.279 26.8922C101.093 27.6318 101.068 28.4026 101.205 29.1528C101.739 31.5589 104.222 45.0617 104.218 47.0154C104.213 48.9691 104.357 65.9511 104.396 67.1012C104.434 68.2513 103.621 72.1202 103.236 73.6553" stroke="#263238" stroke-width="0.240606" stroke-linecap="round" stroke-linejoin="round"/>
<path d="M113.04 41.7363C113.04 41.7363 111.202 41.924 111.597 44.8016C111.991 47.6793 112.925 57.0292 112.925 59.6326C112.925 62.2359 113.531 68.2559 113.406 73.9294C113.281 79.6029 114.614 81.5759 115.23 83.0195" stroke="#263238" stroke-width="0.240606" stroke-linecap="round" stroke-linejoin="round"/>
<path d="M84.6479 79.5791C84.6479 79.5791 83.9935 82.8369 84.8741 84.5211C85.7547 86.2054 86.977 89.776 86.9722 91.7393" stroke="#263238" stroke-width="0.240606" stroke-linecap="round" stroke-linejoin="round"/>
<path d="M91.2392 77.9717C91.2392 77.9717 90.8927 80.6568 91.2729 82.3796C91.6064 83.6187 92.136 84.7965 92.8416 85.8684" stroke="#263238" stroke-width="0.240606" stroke-linecap="round" stroke-linejoin="round"/>
<path d="M102.234 82.1963C102.234 82.1963 101.849 85.0354 102.537 86.8352C102.952 87.9217 103.45 88.9739 104.029 89.9823" stroke="#263238" stroke-width="0.240606" stroke-linecap="round" stroke-linejoin="round"/>
<path d="M87.4196 230.337L117.77 161.856C117.77 161.856 104.83 151.164 96.3124 145.577C87.7949 139.99 77.5836 140.134 77.5836 140.134C77.5836 140.134 64.2492 168.55 63.5466 170.359C62.8441 172.168 53.5471 191.422 53.5471 191.422C53.5471 191.422 49.4616 192.865 47.6474 196.142C46.2278 198.702 35.9876 220.886 31.623 230.361L87.4196 230.337Z" fill="#F9B420" stroke="#263238" stroke-width="0.240606" stroke-linecap="round" stroke-linejoin="round"/>
<path d="M108.908 166.345C110.253 165.549 110.699 163.814 109.903 162.469C109.108 161.124 107.372 160.678 106.027 161.474C104.682 162.269 104.237 164.004 105.032 165.35C105.828 166.695 107.563 167.14 108.908 166.345Z" fill="#263238" stroke="#263238" stroke-width="0.240606" stroke-linecap="round" stroke-linejoin="round"/>
<path d="M105.939 175.182C105.803 175.725 105.509 176.215 105.094 176.591C104.679 176.967 104.162 177.211 103.609 177.293C103.055 177.376 102.489 177.292 101.983 177.052C101.477 176.813 101.054 176.429 100.766 175.948C100.479 175.468 100.34 174.913 100.368 174.354C100.395 173.795 100.588 173.257 100.922 172.808C101.256 172.358 101.715 172.018 102.243 171.83C102.77 171.642 103.341 171.614 103.884 171.75C104.244 171.84 104.583 172.001 104.882 172.222C105.18 172.443 105.432 172.721 105.623 173.04C105.814 173.358 105.94 173.712 105.994 174.079C106.048 174.447 106.029 174.821 105.939 175.182Z" fill="#263238" stroke="#263238" stroke-width="0.240606" stroke-linecap="round" stroke-linejoin="round"/>
</svg>
