<svg width="35" height="35" viewBox="0 0 35 35" fill="none" xmlns="http://www.w3.org/2000/svg">
<path d="M7.78613 9.60742L5.74902 11.6455L5.69531 11.6982H8.11426L8.10449 11.6592L7.88672 10.8223L7.85352 10.6758C7.78353 10.3333 7.77815 9.97989 7.83887 9.63477L7.85645 9.53809L7.78613 9.60742ZM10.208 8.71875C10.0065 8.71887 9.8134 8.79989 9.6709 8.94238C9.52843 9.08494 9.44828 9.27794 9.44824 9.47949C9.44824 9.68117 9.52829 9.87497 9.6709 10.0176C9.81338 10.16 10.0066 10.2401 10.208 10.2402C10.4096 10.2402 10.6035 10.1601 10.7461 10.0176C10.8887 9.87497 10.9688 9.68117 10.9688 9.47949C10.9687 9.27796 10.8885 9.08494 10.7461 8.94238C10.6035 8.79978 10.4097 8.71875 10.208 8.71875ZM12.0098 5.38477L10.0811 7.3125L10.0117 7.38281L10.1094 7.36523C10.6856 7.26377 11.2793 7.34517 11.8066 7.59863C12.3341 7.85216 12.7691 8.2648 13.0498 8.77832L13.2383 9.12305L13.2568 9.15723L13.2871 9.13086L14.5098 8.04492L14.5713 7.99023H13.4893C13.111 7.99011 12.748 7.83977 12.4805 7.57227C12.2128 7.30464 12.0625 6.94099 12.0625 6.5625V5.33105L12.0098 5.38477ZM17.5312 29.1357H17.5C15.6392 29.1162 13.8113 28.6417 12.1758 27.7539C10.5402 26.8661 9.14641 25.5919 8.11621 24.042C6.7495 21.9821 6.93083 19.3547 7.57324 16.9561L8.12891 14.8838C8.28246 14.3106 8.34999 13.7172 8.33105 13.124L8.33008 13.0938H5.77051C4.49918 13.0935 3.8628 11.5572 4.76172 10.6582L11.0225 4.39746C11.9215 3.49854 13.4578 4.13492 13.458 5.40625V6.59375H14.4883C15.8004 6.59375 16.4173 8.21588 15.4365 9.08789L13.9629 10.3965L13.9443 10.4131L13.957 10.4355L16.3779 14.8594C16.7438 15.5277 17.3082 16.0658 17.9932 16.3994C18.6782 16.7331 19.4503 16.8457 20.2021 16.7217L29.7646 15.1445C30.3113 15.0544 30.6882 15.6782 30.3535 16.1201C29.5003 17.246 29.1013 18.6319 28.832 20.0127C28.6609 20.8878 28.3865 21.727 28.0244 22.5176C27.9968 22.5354 27.9703 22.5549 27.9453 22.5762L27.8672 22.6533C26.3403 24.385 24.0553 25.4902 21.4941 25.4902C16.8613 25.49 13.1562 21.885 13.1562 17.5C13.1561 17.2985 13.0761 17.1054 12.9336 16.9629C12.791 16.8203 12.5972 16.7402 12.3955 16.7402C12.194 16.7404 12.0009 16.8204 11.8584 16.9629C11.7159 17.1054 11.6359 17.2985 11.6357 17.5C11.6357 22.78 16.0773 27.0105 21.4941 27.0107C22.753 27.0128 23.9999 26.7776 25.1729 26.3232C23.4271 27.8456 21.2595 28.803 18.9551 29.0625L18.9268 29.0654V30.6562H20.75V32.0527H13.8857V30.6562H17.5312V29.1357Z" fill="url(#paint0_linear_2182_9088)" stroke="#00681D" stroke-width="0.0625"/>
<defs>
<linearGradient id="paint0_linear_2182_9088" x1="4.74001" y1="17.8636" x2="30.5999" y2="18.0221" gradientUnits="userSpaceOnUse">
<stop stop-color="#F9B420"/>
<stop offset="0.5" stop-color="#F7C02D"/>
<stop offset="1" stop-color="#98B130"/>
</linearGradient>
</defs>
</svg>
