<svg width="35" height="35" viewBox="0 0 35 35" fill="none" xmlns="http://www.w3.org/2000/svg">
<path d="M11.667 8.12109C12.7288 8.12109 13.8011 8.62421 14.8164 9.46875C15.831 10.3127 16.7812 11.491 17.5977 12.8232C19.2319 15.49 20.3174 18.7539 20.3174 21.1465C20.3173 23.4405 19.4053 25.6406 17.7832 27.2627C16.161 28.8848 13.961 29.7959 11.667 29.7959C9.37295 29.7959 7.17296 28.8848 5.55078 27.2627C3.92867 25.6406 3.01669 23.4405 3.0166 21.1465C3.0166 18.7539 4.10204 15.49 5.73633 12.8232C6.55276 11.491 7.503 10.3127 8.51758 9.46875C9.53292 8.62421 10.6052 8.12109 11.667 8.12109ZM23.334 5.2041C24.3957 5.2042 25.4672 5.70828 26.4824 6.55273C27.497 7.39668 28.4472 8.57494 29.2637 9.90723C30.8979 12.574 31.9834 15.8369 31.9834 18.2295L31.9697 18.7188C31.9056 19.8566 31.6171 20.9723 31.1191 22.001C30.5499 23.1768 29.7221 24.2086 28.6973 25.0186C27.6725 25.8285 26.4775 26.3956 25.2021 26.6777C23.9784 26.9484 22.7115 26.9469 21.4883 26.6797C22.748 25.1118 23.4369 23.16 23.4336 21.1455C23.4334 19.2901 22.7962 16.9401 21.7695 14.7422C20.7582 12.5774 19.3621 10.5481 17.8086 9.27539C18.5893 8.11258 19.4708 7.10142 20.4014 6.37793C21.3523 5.63871 22.348 5.2041 23.334 5.2041Z" fill="url(#paint0_linear_2182_9098)" stroke="#00681D" stroke-width="0.2"/>
<defs>
<linearGradient id="paint0_linear_2182_9098" x1="3.39614" y1="17.3673" x2="32.1821" y2="17.5903" gradientUnits="userSpaceOnUse">
<stop stop-color="#F9B420"/>
<stop offset="0.5" stop-color="#F7C02D"/>
<stop offset="1" stop-color="#98B130"/>
</linearGradient>
</defs>
</svg>
