<svg width="35" height="35" viewBox="0 0 35 35" fill="none" xmlns="http://www.w3.org/2000/svg">
<path d="M16.9785 12.748C17.9081 12.7451 18.8698 12.9193 19.8613 13.2998C20.8859 13.6933 22.0827 14.8897 23.0967 16.5791C24.1088 18.2652 24.9459 20.4016 25.415 22.5557C25.8843 24.7108 25.9807 26.88 25.5781 28.6182C25.1758 30.3546 24.3305 31.6186 22.8672 32.251C20.5547 33.2504 17.4937 33.6736 14.5771 33.6221C11.6599 33.5706 8.89009 33.0367 7.20703 32.2578L7.18652 32.249C5.70351 31.552 5.00715 29.9492 5.01074 27.7109C5.01439 25.467 5.78482 22.7141 7.13086 20.2021C8.47702 17.6902 10.3891 15.4301 12.5879 14.0859C13.9615 13.2463 15.4296 12.7532 16.9785 12.748ZM18.6699 10.1191C18.7228 10.1199 18.7768 10.1227 18.8311 10.126C19.2672 10.152 19.746 10.2565 20.2031 10.4346C20.6601 10.6125 21.0863 10.8637 21.4258 11.1309C21.7671 11.3995 22.0133 11.6777 22.1221 11.9062C22.1782 12.0242 22.2047 12.1148 22.21 12.1934C22.2151 12.2701 22.2004 12.3428 22.1641 12.4268C22.124 12.5196 22.0313 12.643 21.8594 12.7842C21.3944 12.4117 20.9048 12.1166 20.3896 11.9189C19.2435 11.479 18.1097 11.2815 17.0078 11.2842C17.035 11.1402 17.0725 11.0166 17.1172 10.9131C17.256 10.5916 17.4486 10.4127 17.7266 10.2832C17.9702 10.1697 18.2978 10.1136 18.6699 10.1191ZM13.4912 9.85059C14.2538 9.84055 15.0238 9.98292 15.791 10.2627C15.781 10.284 15.7703 10.3052 15.7607 10.3271V10.3281C15.6377 10.6135 15.5572 10.9265 15.5146 11.2666C14.0155 10.6668 12.6121 10.7557 11.1729 11.584L10.6221 10.6602C11.5533 10.1242 12.5165 9.86369 13.4902 9.85059V9.84961L13.4912 9.85059ZM28.7695 6.61816C28.8224 6.6984 28.8737 6.77961 28.9209 6.86328C29.3068 7.55111 29.3965 8.20947 29.2754 8.63184C29.2138 8.84633 29.119 9.02002 28.9531 9.15625C28.7855 9.29385 28.5366 9.40104 28.1543 9.46484C26.5168 9.73812 24.5959 10.3054 23.1895 10.7617C24.8981 9.21304 26.8285 7.95789 28.7695 6.61816ZM24.8682 1.70898C24.9114 1.70879 24.9558 1.70948 25.001 1.71094C25.7219 1.73417 26.6077 2.0364 27.3242 2.49414C28.0425 2.95319 28.5521 3.55912 28.6855 4.02148C28.7539 4.25854 28.7678 4.45432 28.6855 4.65137C28.6015 4.85241 28.4102 5.0718 28.0283 5.33594C26.0505 6.70368 23.9707 8.0401 22.0967 9.7666C21.6842 9.48295 21.2218 9.24549 20.7393 9.05762C20.5806 8.99584 20.4186 8.94017 20.2549 8.88965C20.9519 6.51008 22.3502 4.40242 23.5361 2.3584C23.6687 2.1298 23.8413 1.96998 24.0576 1.86621C24.2755 1.76171 24.5434 1.7109 24.8682 1.70898ZM13.5264 5.77832C14.5139 6.447 15.529 7.13205 16.3691 8.04199C16.6273 8.3215 16.8653 8.62579 17.0801 8.9541C16.7524 9.11089 16.4598 9.33185 16.2197 9.60352C16.0315 9.30858 15.8181 9.03323 15.5781 8.77344C14.8538 7.9891 13.9027 7.33633 12.9209 6.6709L13.5264 5.77832ZM20.1494 1.76074C20.5314 1.76773 21.0712 1.9656 21.7363 2.49805C20.6632 4.2891 19.4306 6.29733 18.7842 8.62793C18.6866 8.6246 18.5893 8.62481 18.4922 8.62793C17.9216 6.63026 18.0155 4.42112 18.6074 3.08398C18.994 2.2113 19.4611 1.80124 20.0332 1.7627L20.1494 1.76074Z" fill="url(#paint0_linear_2182_9093)" stroke="#00681D" stroke-width="0.2"/>
<defs>
<linearGradient id="paint0_linear_2182_9093" x1="5.31386" y1="17.4956" x2="29.5096" y2="17.6172" gradientUnits="userSpaceOnUse">
<stop stop-color="#F9B420"/>
<stop offset="0.5" stop-color="#F7C02D"/>
<stop offset="1" stop-color="#98B130"/>
</linearGradient>
</defs>
</svg>
