<svg width="59" height="59" viewBox="0 0 59 59" fill="none" xmlns="http://www.w3.org/2000/svg">
<circle cx="29.5" cy="29.5" r="29.5" fill="#F9B420"/>
<path d="M15.7051 23.7334H17.1787L17.166 23.6807L17.041 23.2012C16.984 22.9827 16.9746 22.7546 17.0137 22.5322L17.0371 22.4014L15.7051 23.7334ZM18.3477 21.9795C18.2258 21.9795 18.1086 22.0272 18.0225 22.1133C17.9363 22.1994 17.8887 22.3167 17.8887 22.4385C17.8887 22.5603 17.9363 22.6775 18.0225 22.7637C18.1086 22.8498 18.2258 22.8984 18.3477 22.8984C18.4695 22.8984 18.5867 22.8498 18.6729 22.7637C18.759 22.6775 18.8066 22.5603 18.8066 22.4385C18.8066 22.3167 18.759 22.1994 18.6729 22.1133C18.5867 22.0272 18.4695 21.9795 18.3477 21.9795ZM18.1641 21.2744L18.2949 21.251C18.6201 21.1937 18.9553 21.2398 19.2529 21.3828C19.5505 21.5259 19.7957 21.7591 19.9541 22.0488L20.0625 22.2461L20.0879 22.292L20.127 22.2568L20.8271 21.6348L20.9092 21.5615H20.2275C20.0171 21.5615 19.8148 21.4779 19.666 21.3291C19.5172 21.1803 19.4336 20.978 19.4336 20.7676V20.0049L18.1641 21.2744ZM22.5664 33.6748L22.5244 33.6738C21.4626 33.6627 20.4196 33.3922 19.4863 32.8857C18.5528 32.379 17.7569 31.6512 17.1689 30.7666C16.3921 29.5956 16.4939 28.0995 16.8613 26.7275L17.1797 25.54C17.2682 25.2095 17.3068 24.8674 17.2959 24.5254L17.2949 24.4854H15.8057C15.0986 24.4853 14.7452 23.6308 15.2451 23.1309L18.8311 19.5449C19.331 19.045 20.1855 19.3984 20.1855 20.1055V20.8096H20.7998C21.5292 20.8099 21.8716 21.7115 21.3262 22.1963L20.4824 22.9463L20.458 22.9688L20.4736 22.9971L21.8604 25.5312C22.0722 25.9184 22.3991 26.2305 22.7959 26.4238C23.1926 26.6171 23.6398 26.6821 24.0752 26.6104L29.5537 25.707C29.8454 25.6592 30.0459 25.9917 29.8672 26.2275C29.3752 26.8768 29.1466 27.6751 28.9922 28.4668C28.895 28.9641 28.7385 29.4411 28.5332 29.8906C28.5189 29.9002 28.5053 29.9108 28.4922 29.9219L28.4443 29.9688C27.5742 30.9554 26.2724 31.5859 24.8125 31.5859C22.1711 31.5859 20.0607 29.5308 20.0605 27.0332C20.0605 26.9114 20.0119 26.7942 19.9258 26.708C19.8396 26.6218 19.7224 26.5732 19.6006 26.5732C19.4788 26.5733 19.3615 26.6219 19.2754 26.708C19.1893 26.7942 19.1416 26.9114 19.1416 27.0332C19.1417 30.0716 21.6974 32.5049 24.8125 32.5049C25.4915 32.506 26.1642 32.3864 26.8018 32.1562C25.8237 32.9742 24.6259 33.4887 23.3555 33.6318L23.3184 33.6357V34.5928H24.3623V35.3447H20.4775V34.5928H22.5664V33.6748Z" fill="#243B25" stroke="#243B25" stroke-width="0.0835337"/>
<path d="M30.4082 19.7246H31.8818L31.8691 19.6719L31.7441 19.1924C31.6871 18.9739 31.6777 18.7458 31.7168 18.5234L31.7402 18.3926L30.4082 19.7246ZM33.0508 17.9707C32.929 17.9707 32.8117 18.0184 32.7256 18.1045C32.6395 18.1906 32.5918 18.3079 32.5918 18.4297C32.5918 18.5515 32.6395 18.6687 32.7256 18.7549C32.8117 18.841 32.9289 18.8896 33.0508 18.8896C33.1726 18.8896 33.2898 18.841 33.376 18.7549C33.4621 18.6687 33.5098 18.5515 33.5098 18.4297C33.5097 18.3079 33.4621 18.1906 33.376 18.1045C33.2898 18.0184 33.1726 17.9707 33.0508 17.9707ZM32.8672 17.2656L32.998 17.2422C33.3232 17.1849 33.6584 17.231 33.9561 17.374C34.2536 17.5171 34.4988 17.7503 34.6572 18.04L34.7656 18.2373L34.791 18.2832L34.8301 18.248L35.5303 17.626L35.6123 17.5527H34.9307C34.7202 17.5527 34.518 17.4691 34.3691 17.3203C34.2203 17.1715 34.1367 16.9693 34.1367 16.7588V15.9961L32.8672 17.2656ZM37.2695 29.666L37.2275 29.665C36.1657 29.6539 35.1227 29.3834 34.1895 28.877C33.256 28.3702 32.46 27.6424 31.8721 26.7578C31.0952 25.5868 31.197 24.0907 31.5645 22.7188L31.8828 21.5312C31.9713 21.2007 32.0099 20.8586 31.999 20.5166L31.998 20.4766H30.5088C29.8018 20.4765 29.4483 19.622 29.9482 19.1221L33.5342 15.5361C34.0341 15.0362 34.8886 15.3897 34.8887 16.0967V16.8008H35.5029C36.2323 16.8011 36.5747 17.7027 36.0293 18.1875L35.1855 18.9375L35.1611 18.96L35.1768 18.9883L36.5635 21.5225C36.7754 21.9096 37.1023 22.2217 37.499 22.415C37.8958 22.6083 38.3429 22.6733 38.7783 22.6016L44.2568 21.6982C44.5485 21.6504 44.749 21.9829 44.5703 22.2188C44.0783 22.868 43.8497 23.6663 43.6953 24.458C43.5981 24.9553 43.4416 25.4323 43.2363 25.8818C43.222 25.8914 43.2084 25.902 43.1953 25.9131L43.1475 25.96C42.2774 26.9467 40.9755 27.5771 39.5156 27.5771C36.8742 27.5771 34.7638 25.5221 34.7637 23.0244C34.7637 22.9026 34.715 22.7854 34.6289 22.6992C34.5427 22.6131 34.4256 22.5645 34.3037 22.5645C34.1819 22.5645 34.0647 22.6131 33.9785 22.6992C33.8924 22.7854 33.8447 22.9026 33.8447 23.0244C33.8449 26.0628 36.4006 28.4961 39.5156 28.4961C40.1946 28.4972 40.8674 28.3776 41.5049 28.1475C40.5268 28.9655 39.329 29.4799 38.0586 29.623L38.0215 29.627V30.584H39.0654V31.3359H35.1807V30.584H37.2695V29.666Z" fill="#243B25" stroke="#243B25" stroke-width="0.0835337"/>
<path d="M26.3984 34.4268H27.8721L27.8594 34.374L27.7344 33.8945C27.6774 33.6761 27.668 33.4479 27.707 33.2256L27.7305 33.0947L26.3984 34.4268ZM29.041 32.6729C28.9192 32.6729 28.802 32.7205 28.7158 32.8066C28.6297 32.8928 28.5821 33.01 28.582 33.1318C28.582 33.2537 28.6297 33.3709 28.7158 33.457C28.802 33.5432 28.9192 33.5918 29.041 33.5918C29.1629 33.5918 29.2801 33.5432 29.3662 33.457C29.4523 33.3709 29.5 33.2537 29.5 33.1318C29.5 33.01 29.4523 32.8928 29.3662 32.8066C29.2801 32.7205 29.1628 32.6729 29.041 32.6729ZM28.8574 31.9678L28.9883 31.9443C29.3135 31.8871 29.6487 31.9331 29.9463 32.0762C30.2439 32.2192 30.4891 32.4524 30.6475 32.7422L30.7559 32.9395L30.7812 32.9854L30.8203 32.9502L31.5205 32.3281L31.6025 32.2549H30.9209C30.7104 32.2549 30.5082 32.1713 30.3594 32.0225C30.2106 31.8736 30.127 31.6714 30.127 31.4609V30.6982L28.8574 31.9678ZM33.2598 44.3682L33.2178 44.3672C32.156 44.356 31.113 44.0856 30.1797 43.5791C29.2462 43.0724 28.4503 42.3445 27.8623 41.46C27.0855 40.2889 27.1873 38.7929 27.5547 37.4209L27.873 36.2334C27.9616 35.9029 28.0002 35.5608 27.9893 35.2188L27.9883 35.1787H26.499C25.792 35.1787 25.4385 34.3242 25.9385 33.8242L29.5244 30.2383C30.0244 29.7383 30.8789 30.0918 30.8789 30.7988V31.5029H31.4932C32.2225 31.5033 32.565 32.4049 32.0195 32.8896L31.1758 33.6396L31.1514 33.6621L31.167 33.6904L32.5537 36.2246C32.7656 36.6118 33.0925 36.9239 33.4893 37.1172C33.886 37.3104 34.3331 37.3754 34.7686 37.3037L40.2471 36.4004C40.5387 36.3525 40.7392 36.685 40.5605 36.9209C40.0685 37.5702 39.84 38.3685 39.6855 39.1602C39.5883 39.6574 39.4318 40.1345 39.2266 40.584C39.2123 40.5935 39.1986 40.6041 39.1855 40.6152L39.1377 40.6621C38.2676 41.6488 36.9658 42.2792 35.5059 42.2793C32.8644 42.2793 30.754 40.2242 30.7539 37.7266C30.7539 37.6047 30.7053 37.4875 30.6191 37.4014C30.533 37.3152 30.4158 37.2666 30.2939 37.2666C30.1721 37.2666 30.0549 37.3152 29.9688 37.4014C29.8827 37.4875 29.835 37.6048 29.835 37.7266C29.8351 40.765 32.3908 43.1982 35.5059 43.1982C36.1848 43.1993 36.8576 43.0797 37.4951 42.8496C36.5171 43.6676 35.3193 44.1821 34.0488 44.3252L34.0117 44.3291V45.2861H35.0557V46.0381H31.1709V45.2861H33.2598V44.3682Z" fill="#243B25" stroke="#243B25" stroke-width="0.0835337"/>
</svg>
