<svg width="59" height="59" viewBox="0 0 59 59" fill="none" xmlns="http://www.w3.org/2000/svg">
<circle cx="29.5" cy="29.5" r="29.5" fill="#F9B420"/>
<mask id="mask0_2181_9060" style="mask-type:luminance" maskUnits="userSpaceOnUse" x="16" y="14" width="27" height="31">
<path d="M16.167 14.5264H42.807V44.878H16.167V14.5264Z" fill="white"/>
</mask>
<g mask="url(#mask0_2181_9060)">
<path fill-rule="evenodd" clip-rule="evenodd" d="M36.6565 31.5145C37.2815 31.814 37.9161 32.1353 38.529 32.4807L38.5315 32.4824L38.5398 32.487C39.2102 32.8649 39.854 33.272 40.4315 33.7099C41.6206 34.6128 42.5256 35.6507 42.8073 36.8528L42.8069 36.8532L42.8073 36.8561L42.8111 36.8736L42.8115 36.8749C42.8148 36.8895 42.8173 36.9049 42.8194 36.9203C42.8223 36.9461 42.824 36.969 42.824 36.9911V44.2724C42.824 44.4357 42.7577 44.5849 42.6515 44.694C42.5423 44.8061 42.3915 44.8757 42.2252 44.8757H16.7731C16.6073 44.8757 16.4565 44.8061 16.3473 44.694C16.2411 44.5849 16.1748 44.4357 16.1748 44.2724V36.9911C16.1748 36.9695 16.1765 36.9461 16.1794 36.9199L16.1798 36.9203C16.1811 36.912 16.1823 36.9032 16.184 36.8936C16.1856 36.8803 16.1881 36.8665 16.1915 36.8528C16.4811 35.6153 17.4311 34.5524 18.6706 33.6315C19.3994 33.0907 20.2306 32.5974 21.0836 32.1465C21.0994 32.137 21.1161 32.1282 21.1331 32.1207C21.6186 31.8653 22.1111 31.6236 22.5952 31.3949C22.7798 31.0636 23.0623 30.7807 23.4348 30.5595C23.1956 30.459 22.9652 30.3428 22.744 30.2103C22.1627 29.8628 21.6481 29.4061 21.2011 28.8415C21.1381 28.769 21.1002 28.6749 21.1002 28.572C21.1002 28.3449 21.2844 28.1603 21.5115 28.1603C22.669 28.1603 22.6869 26.0111 22.7077 23.5678C22.7186 22.267 22.7302 20.8899 22.9186 19.6665C23.3044 17.1565 24.3886 15.2499 27.4927 15.6503C28.7119 14.6965 30.0186 14.3961 31.2836 14.6032C32.6944 14.834 34.0373 15.7015 35.1327 16.9974C36.4311 18.5328 36.4186 21.2861 36.4073 23.7486C36.3965 26.1045 36.3869 28.1607 37.4869 28.1607V28.1611C37.5761 28.1611 37.6656 28.1899 37.7411 28.249C37.9194 28.389 37.9502 28.6474 37.8102 28.8261C37.3706 29.3849 36.8656 29.8382 36.2965 30.1857C36.0961 30.3078 35.8886 30.4165 35.6727 30.5124C36.1323 30.7649 36.4644 31.1065 36.6565 31.5145Z" fill="black"/>
</g>
<path fill-rule="evenodd" clip-rule="evenodd" d="M26.499 32.7559L28.1211 44.0525H31.0694L32.6819 32.8184L29.8532 34.4517C29.7303 34.5242 29.5732 34.5304 29.4407 34.4542L26.499 32.7559Z" fill="#00681D"/>
<path fill-rule="evenodd" clip-rule="evenodd" d="M23.2746 31.8623C23.2709 31.8714 23.2667 31.8802 23.2625 31.8889L23.2617 31.8906L23.2509 31.916C23.1384 32.1906 23.1338 32.5185 23.2471 32.8831C23.3859 33.3314 23.6992 33.8285 24.2021 34.3489C24.2796 34.4293 24.3325 34.5273 24.358 34.6327C24.3834 34.7377 24.3821 34.8473 24.3517 34.9523C24.3205 35.0618 24.2613 35.1573 24.1821 35.2323C24.1 35.3098 23.998 35.3627 23.8838 35.3843C23.505 35.4568 23.2721 35.6043 23.1855 35.826C23.0842 36.0868 23.1317 36.4748 23.3284 36.9898L23.33 36.9931L27.1763 43.2535L25.3959 30.8535C25.2088 30.8656 25.0321 30.886 24.8667 30.9148C24.8471 30.9198 24.8271 30.9235 24.8067 30.9256C24.4592 30.9914 24.1621 31.0935 23.9188 31.2264C23.6105 31.3948 23.3934 31.611 23.2746 31.8623ZM35.9634 31.9802C35.9567 31.9656 35.9513 31.9502 35.9467 31.9348L35.9392 31.916C35.8271 31.6423 35.6013 31.4064 35.2713 31.2264C35.0055 31.081 34.6755 30.9727 34.2859 30.9085C34.2696 30.9068 34.2534 30.9043 34.2375 30.901C34.0971 30.8793 33.9492 30.8631 33.7934 30.8535L32.0134 43.2535L35.8609 36.9914C36.058 36.476 36.1055 36.0873 36.0042 35.8264C35.9175 35.6043 35.6846 35.4573 35.3059 35.3848C35.1921 35.3627 35.0905 35.3102 35.0075 35.2323V35.2327C34.928 35.1577 34.8692 35.0618 34.838 34.9523C34.8075 34.8468 34.8063 34.7373 34.8317 34.6327C34.8571 34.5273 34.91 34.4298 34.9875 34.3493C35.4909 33.8285 35.8038 33.3314 35.9425 32.8831C36.0471 32.5464 36.0517 32.241 35.9634 31.9802Z" fill="#EAEEF1"/>
<path fill-rule="evenodd" clip-rule="evenodd" d="M21.4718 41.1165C21.6322 41.1165 21.7789 41.1761 21.8905 41.2744L21.8955 41.2736C21.9814 41.2581 22.0635 41.2323 22.1368 41.1931C22.1922 41.164 22.2401 41.1277 22.276 41.0844C22.4618 40.859 22.4001 40.3973 22.2201 39.8815C21.9451 39.0948 21.3964 38.2452 20.9464 37.7702C20.8789 37.699 20.8097 37.6473 20.7389 37.6148C20.673 37.5852 20.6001 37.5702 20.5201 37.5702H20.3789C20.2989 37.5702 20.226 37.5852 20.1601 37.6148C20.0889 37.6473 20.0197 37.699 19.9522 37.7702C19.5022 38.2452 18.9539 39.0948 18.6789 39.8819C18.4985 40.3973 18.4368 40.859 18.623 41.0844C18.6585 41.1277 18.7064 41.164 18.7618 41.1931C18.8151 41.2215 18.8735 41.2431 18.9347 41.2586C19.0439 41.1694 19.183 41.1161 19.3347 41.1161C19.6843 41.1161 19.9672 41.3994 19.9672 41.749C19.9672 42.0981 19.6843 42.3815 19.3347 42.3815C19.1005 42.3815 18.8964 42.2544 18.7868 42.0652C18.6414 42.034 18.5026 41.9865 18.376 41.9194C18.2326 41.8431 18.1014 41.7402 17.9897 41.6048C17.5905 41.1206 17.6364 40.3781 17.9043 39.6115C18.2172 38.7161 18.8435 37.7473 19.3576 37.2048C19.4989 37.0556 19.6535 36.9427 19.823 36.8661C19.9164 36.8236 20.013 36.7923 20.113 36.7727C20.1272 36.1981 20.1889 35.5865 20.2972 34.9377C20.383 34.4244 20.498 33.8873 20.6422 33.3265C20.1185 33.6302 19.6164 33.9511 19.1597 34.2902C18.0735 35.0969 17.2451 36.0027 16.998 37.014V44.0527H26.7026L22.6235 37.4136C22.6126 37.3961 22.603 37.3777 22.5951 37.3594L22.5935 37.3561V37.3552C22.583 37.3348 22.5764 37.3202 22.573 37.3111C22.5697 37.3027 22.5668 37.294 22.5643 37.2856C22.2914 36.5723 22.2439 35.9873 22.4214 35.5311C22.5822 35.1181 22.9026 34.8306 23.3822 34.669C22.9185 34.1386 22.616 33.6161 22.4635 33.1248C22.3889 32.884 22.3497 32.6498 22.3447 32.4248C22.1114 32.5398 21.8772 32.6573 21.6451 32.7781C21.4055 33.5965 21.226 34.3615 21.1072 35.0727C21.003 35.694 20.9447 36.2736 20.9318 36.8106C20.9805 36.8265 21.0289 36.8448 21.076 36.8665C21.2451 36.9431 21.3997 37.0561 21.541 37.2048C22.0551 37.7477 22.6818 38.7165 22.9947 39.6119C23.2626 40.3786 23.3085 41.1211 22.9089 41.6052C22.7972 41.7406 22.666 41.8436 22.5226 41.9198C22.3755 41.9977 22.2114 42.0494 22.0397 42.0802C22.0293 42.0819 22.0189 42.0836 22.0085 42.0844C21.8964 42.2631 21.698 42.3819 21.4718 42.3819C21.1226 42.3819 20.8393 42.0986 20.8393 41.7494C20.8393 41.3998 21.1226 41.1165 21.4718 41.1165ZM32.4885 44.0531H42.0014V37.014C41.7618 36.0323 40.9751 35.1506 39.9368 34.3623C39.6847 34.1711 39.4172 33.9848 39.1389 33.8044C39.3343 34.4081 39.4905 35.0477 39.5993 35.6881C39.7497 36.5736 39.8097 37.4648 39.7576 38.2673C40.036 38.3448 40.2851 38.4931 40.4839 38.6919C40.783 38.9915 40.9689 39.4056 40.9689 39.8627C40.9689 40.3198 40.7835 40.7336 40.4839 41.0331C40.1843 41.3327 39.7701 41.5181 39.313 41.5181C38.856 41.5181 38.4422 41.3327 38.1426 41.0331C37.843 40.7336 37.6576 40.3198 37.6576 39.8627C37.6576 39.4056 37.843 38.9915 38.1426 38.6919C38.3568 38.4777 38.6297 38.3219 38.9351 38.2506C38.988 37.5027 38.9322 36.6627 38.7893 35.8231C38.6289 34.8769 38.3589 33.9361 38.0118 33.1311C37.6285 32.9181 37.2355 32.714 36.8422 32.5181C36.8297 32.7144 36.7918 32.9169 36.7276 33.1248C36.5751 33.6161 36.2726 34.1386 35.8089 34.669C36.288 34.8311 36.6085 35.1186 36.7693 35.5311C36.9472 35.9877 36.8993 36.5731 36.626 37.2873C36.6214 37.3019 36.616 37.3161 36.6097 37.3302L36.608 37.3344C36.6035 37.3456 36.5985 37.3569 36.5926 37.3681L36.5822 37.3869C36.578 37.3961 36.5726 37.4048 36.5672 37.4136L32.4885 44.0531Z" fill="#EAEEF1"/>
<path fill-rule="evenodd" clip-rule="evenodd" d="M39.9021 39.273C39.7513 39.1226 39.543 39.0293 39.313 39.0293C39.083 39.0293 38.8751 39.1226 38.7242 39.273C38.5738 39.4239 38.4805 39.6322 38.4805 39.8622C38.4805 40.0922 38.5738 40.3001 38.7242 40.451C38.8751 40.6018 39.083 40.6947 39.313 40.6947C39.543 40.6947 39.7513 40.6018 39.9021 40.451C40.0526 40.3001 40.1459 40.0922 40.1459 39.8622C40.1459 39.6322 40.0526 39.4239 39.9021 39.273Z" fill="#243B25"/>
<path fill-rule="evenodd" clip-rule="evenodd" d="M31.5907 28.642C31.0482 28.9295 30.4145 29.1378 29.6903 29.2674C29.6386 29.2766 29.5874 29.2757 29.5391 29.2661C28.7341 29.1216 28.0411 28.8791 27.4607 28.5391C27.3257 28.8028 27.182 29.0899 27.0482 29.357C26.7378 29.9778 26.4728 30.5074 26.3153 30.5861C26.3074 30.5899 26.2995 30.5936 26.2916 30.597L26.1953 30.6441L26.3507 31.7253L29.6445 33.627L32.8303 31.7878L32.982 30.7295L32.9778 30.7274C32.8486 30.6657 32.7507 30.6182 32.6853 30.5861C32.5257 30.507 32.2611 29.9782 31.9511 29.3582C31.8345 29.1245 31.7107 28.877 31.5907 28.642Z" fill="#A84532"/>
<path fill-rule="evenodd" clip-rule="evenodd" d="M30.4033 19.2123L30.5962 19.3156C33.2575 20.7356 34.6912 21.5006 33.7954 25.751L33.7933 25.7606H33.7937C33.5658 26.7256 33.1029 27.5039 32.4042 28.0948C32.3642 28.1289 32.3233 28.1619 32.2821 28.1944C32.4137 28.4523 32.5529 28.731 32.6833 28.9914C32.9267 29.4777 32.9625 29.8077 33.0483 29.8498C33.1675 29.9089 33.2617 29.9552 33.3308 29.9881L33.4508 30.0444C33.505 30.0302 33.5621 30.0235 33.6208 30.0252C33.865 30.0327 34.0967 30.0527 34.315 30.0848C34.8842 29.9698 35.4021 29.7694 35.8687 29.4848C36.1737 29.2985 36.4583 29.0748 36.7221 28.8135C35.5671 28.2148 35.5762 26.1069 35.5871 23.7452C35.5979 21.426 35.6096 18.8331 34.5058 17.5273C33.5337 16.3777 32.3625 15.611 31.1512 15.4127C30.0662 15.2352 28.9346 15.5181 27.8729 16.3981C27.7792 16.4756 27.6612 16.5048 27.55 16.4881C24.9567 16.0894 24.055 17.6823 23.7312 19.7881C23.5487 20.9744 23.5375 22.311 23.5267 23.5744C23.5062 26.016 23.4871 28.2081 22.2783 28.8164C22.5517 29.0864 22.8471 29.3164 23.1646 29.5064C23.6442 29.7935 24.1787 29.9919 24.7679 30.101C25.0171 30.0594 25.2846 30.0339 25.5687 30.0248H25.59L25.7025 29.971L25.7229 29.9606C25.7925 29.9269 25.8612 29.8935 25.9283 29.8606L25.9483 29.8498C26.0317 29.8081 26.0721 29.4769 26.315 28.9902C26.4687 28.6831 26.635 28.3506 26.7871 28.0569C26.1183 27.4748 25.6712 26.7164 25.4467 25.7814C24.3175 22.5827 25.2675 21.7135 26.2729 20.7935C26.9117 20.2089 27.5787 19.5985 27.465 18.0052C27.4492 17.7789 27.6196 17.5823 27.8458 17.5664C28.0583 17.5514 28.245 17.7014 28.2796 17.9073C28.4858 18.8056 28.8267 19.4156 29.3025 19.9006C29.5304 20.1331 29.7921 20.3414 30.0871 20.5414C29.9637 20.2364 29.8679 19.9439 29.8 19.6639C29.7467 19.4439 29.8821 19.2223 30.1021 19.1689C30.2087 19.1435 30.3154 19.1619 30.4033 19.2123Z" fill="#243B25"/>
<path fill-rule="evenodd" clip-rule="evenodd" d="M32.9947 25.5735C33.6756 22.3314 32.7656 21.4493 30.9314 20.4272C31.0647 20.731 31.2264 21.0493 31.4168 21.3801C31.4939 21.5018 31.5043 21.6606 31.4306 21.796C31.3222 21.9947 31.0735 22.0681 30.8747 21.9597C30.0022 21.4831 29.2872 21.0551 28.7185 20.4751C28.4868 20.2389 28.2818 19.981 28.1039 19.6885C27.8331 20.4751 27.3231 20.9426 26.8264 21.3968C26.0264 22.1285 25.271 22.8201 26.2256 25.5185C26.2322 25.536 26.2381 25.5543 26.2422 25.5731C26.4285 26.3618 26.8018 26.9935 27.3618 27.4672C27.9197 27.9397 28.6722 28.2651 29.6181 28.4431C30.5643 28.2647 31.3164 27.9393 31.8743 27.4672C32.4347 26.9935 32.8081 26.3618 32.9943 25.5731L32.9947 25.5735Z" fill="#A84532"/>
</svg>
