<svg width="59" height="59" viewBox="0 0 59 59" fill="none" xmlns="http://www.w3.org/2000/svg">
<circle cx="29.5" cy="29.5" r="29.5" fill="#F9B420"/>
<path d="M44.8329 27.6141C44.6006 27.6969 44.3303 27.6679 44.0996 27.4501C42.7462 26.1722 41.5068 24.7761 40.2431 23.4116C40.0927 23.2488 40.0342 23.0673 40.0411 22.8926C38.1922 21.1156 35.8685 19.9197 33.593 18.7559C33.4366 18.6752 33.3346 18.5663 33.2773 18.445C31.95 17.8249 30.6303 17.1872 29.3191 16.5334C29.1872 16.468 29.0945 16.3826 29.0338 16.2861C28.9758 16.3672 28.9015 16.4347 28.8083 16.4804C25.665 18.0158 22.6028 19.6959 19.5483 21.3966C18.8338 22.1256 18.1287 22.8657 17.4287 23.6101C17.4129 23.7571 17.3424 23.9053 17.1985 24.0359C16.5942 24.5852 16.0189 25.1643 15.4786 25.7759C15.023 26.2931 14.4088 26.8863 14.1893 27.5547C13.9629 28.2444 13.0763 28.1799 12.8025 27.7072C12.6531 27.6452 12.5185 27.5453 12.4152 27.4129C11.9005 26.7548 12.6676 25.9719 13.0575 25.4466C13.8404 24.3917 14.7189 23.4201 15.7033 22.5497C15.8541 22.416 16.0202 22.3579 16.1812 22.3554C16.4682 21.9804 16.7556 21.6063 17.0503 21.2373C17.1887 21.0639 17.3309 20.8922 17.4757 20.7218C17.4859 20.6944 17.497 20.6667 17.5094 20.6398C17.9912 19.6186 18.871 18.8887 19.9032 18.5279C20.449 18.1845 21.0384 17.9124 21.682 17.7407C21.7786 17.7147 21.8682 17.7083 21.9524 17.716C22.0433 17.6651 22.1343 17.6147 22.2257 17.5635C23.8192 16.6816 25.4446 15.8167 27.1675 15.2184C27.709 14.8028 28.304 14.4983 28.9847 14.3826C29.3589 14.3185 29.7001 14.4531 29.8581 14.8114C29.9081 14.9258 29.9247 15.0616 29.9089 15.1945C29.9598 15.2081 30.0123 15.2274 30.0648 15.2538C30.2651 15.3538 30.4659 15.4529 30.6662 15.5519C30.8985 15.3653 31.2256 15.3521 31.5084 15.4845C34.3254 16.8093 37.0378 18.3438 39.6238 20.0769C39.7737 20.0906 39.9262 20.161 40.0599 20.3105C41.8993 22.3601 43.6999 24.4562 45.6474 26.4054C46.2483 27.0067 45.4825 27.9019 44.8329 27.6141ZM33.4106 25.0106C33.3538 24.5403 33.0313 24.0479 32.4847 24.0851C31.0347 24.1841 29.5814 24.2298 28.128 24.2153C27.402 24.2085 26.6755 24.185 25.9499 24.1504C25.1222 24.112 24.2911 24.469 24.2864 25.4248C24.283 26.0864 24.8775 26.4003 25.4579 26.317C25.6548 26.2888 25.8525 26.2662 26.0511 26.247C26.4051 26.3717 26.8181 26.2969 27.1833 26.2833C27.5203 26.2709 27.8581 26.2611 28.1951 26.2542C29.6407 26.2256 31.0873 26.2521 32.5317 26.3294C32.9895 26.3542 33.5152 25.8835 33.4571 25.4039C33.4422 25.2732 33.4264 25.1421 33.4106 25.0106Z" fill="#00681D"/>
<path d="M37.8449 31.4821C36.4739 31.6551 35.0897 31.6098 33.712 31.5965C32.2889 31.5837 30.8659 31.5726 29.4437 31.5572C26.6245 31.5269 23.825 31.3766 21.0161 31.1391C20.8901 31.1289 20.7867 31.1549 20.7056 31.2058C20.5181 31.2357 20.3882 31.345 20.3152 31.4851C20.2418 31.5278 20.1768 31.5906 20.1273 31.676C20.0295 31.8425 20.0321 32.0975 20.1422 32.2726C20.0726 32.5793 20.2465 32.9461 20.6633 32.9653C21.1262 32.9867 21.5862 32.9564 22.0415 32.8825C22.0359 32.9969 22.0389 33.1152 22.0436 33.2387C22.0253 33.319 22.0257 33.4048 22.0517 33.4971C22.0534 33.5022 22.0556 33.5069 22.0569 33.5116C22.0851 34.0284 22.1325 34.5447 22.141 35.0623C22.1594 36.2325 22.068 37.3951 22.1162 38.5674C22.1628 39.709 22.2426 40.8519 22.1999 41.9947C22.1794 42.5602 22.129 43.1231 22.021 43.6783C21.9146 44.2237 21.7716 44.7336 21.9057 45.2884C22.0142 45.7356 22.4972 45.7719 22.7816 45.5562C24.0385 45.6929 25.3048 45.7287 26.5673 45.6501C27.093 45.6177 27.6132 45.5558 28.1351 45.493C28.2222 45.6198 28.3679 45.7061 28.572 45.7005C29.7901 45.6685 31.0085 45.683 32.2261 45.7454C32.4504 45.7561 32.6033 45.6548 32.6865 45.5096C32.7446 45.5143 32.8023 45.5199 32.8604 45.5246C33.4211 45.5737 33.9827 45.6168 34.5465 45.6224C35.1359 45.6288 35.7235 45.5562 36.3121 45.5908C37.018 45.6322 37.0236 44.5474 36.3351 44.4825C36.3351 40.6037 36.3351 36.7245 36.3351 32.8462C36.5636 32.8633 36.7912 32.8868 37.0184 32.9175C37.0966 32.9282 37.1735 32.9282 37.2474 32.9171C37.4383 32.9299 37.6296 32.9389 37.8205 32.9453C38.2378 32.9577 38.4107 32.5857 38.3416 32.2683C38.4517 31.9344 38.292 31.4257 37.8449 31.4821ZM23.9775 33.7631C24.4451 33.7439 24.9153 33.7123 25.3838 33.7136C26.0544 33.7157 26.7078 33.9092 27.3706 33.9673C27.3647 33.9942 27.3591 34.0224 27.3557 34.0501C27.2985 34.4986 26.9991 34.8253 26.7616 35.1892C26.5408 35.5253 26.396 35.9024 26.2376 36.2701C26.0578 36.6878 25.878 37.1063 25.6982 37.524C25.679 37.5693 25.6567 37.6163 25.6341 37.6633C25.6038 37.5988 25.5713 37.5364 25.535 37.4749C25.3121 37.1021 25.0298 36.7677 24.8022 36.397C24.3213 35.615 23.9954 34.7557 23.6721 33.8998C23.6533 33.8503 23.6302 33.8067 23.6025 33.7674C23.7315 33.7674 23.8574 33.7683 23.9775 33.7631ZM23.2386 35.7867C23.4 36.1484 23.5756 36.5037 23.7767 36.845C24.0103 37.2404 24.3046 37.5936 24.5459 37.9836C24.7706 38.3474 24.8615 38.7758 25.1165 39.1205C25.1208 39.126 25.1246 39.1307 25.1284 39.1358C25.1302 39.1448 25.1323 39.1538 25.1353 39.1627C25.1357 39.1645 25.1366 39.1662 25.137 39.1683C25.1242 39.1841 25.1118 39.2003 25.0998 39.2183C24.6356 39.9101 24.3614 40.6951 23.8587 41.3686C23.6776 41.6112 23.4893 41.8482 23.3061 42.0887C23.3061 42.081 23.3069 42.0742 23.3074 42.0665C23.3509 41.0193 23.289 39.9716 23.2416 38.9257C23.1933 37.8751 23.198 36.8369 23.2386 35.7867ZM26.7082 44.5308C25.4624 44.6166 24.2124 44.591 22.97 44.4663C22.9866 44.3586 23.0105 44.2497 23.0362 44.1421C23.2104 44.1519 23.3834 44.0712 23.4855 43.859C23.828 43.1466 24.3482 42.5581 24.8167 41.929C25.1481 41.4844 25.3796 40.9924 25.6328 40.5098C26.188 41.788 26.947 42.9681 27.8861 44.0114C27.8891 44.0148 27.8925 44.0174 27.8951 44.0204C27.8964 44.1438 27.8972 44.2668 27.8998 44.3902C27.4962 44.4453 27.0956 44.5043 26.7082 44.5308ZM27.9301 41.709C27.922 41.9004 27.9156 42.0913 27.9105 42.283C27.1989 41.3029 26.6459 40.2155 26.2679 39.0598C26.4067 38.9526 26.49 38.7831 26.4451 38.57C26.5699 38.2027 26.7599 37.8435 26.9124 37.4903C27.0853 37.0876 27.2523 36.6818 27.4334 36.2829C27.5837 35.9507 27.787 35.6709 27.9873 35.3711C27.9737 35.7619 27.9621 36.1531 27.9566 36.5447C27.9391 37.6782 27.9724 38.8113 28.1138 39.9366C27.9668 40.5093 27.9557 41.1158 27.9301 41.709ZM29.0461 44.2809C29.0337 44.2813 29.0217 44.2813 29.0094 44.2822C29.0089 44.254 29.0089 44.2258 29.0081 44.1981C29.0217 44.21 29.0358 44.2207 29.0499 44.2314C29.0486 44.2472 29.0474 44.2643 29.0461 44.2809ZM34.4273 32.7159C34.4564 32.739 34.4888 32.7591 34.5247 32.7749C34.4722 32.7757 34.4196 32.7757 34.3675 32.7766C34.3646 32.7556 34.3611 32.7351 34.3564 32.7151C34.3804 32.7151 34.4038 32.7151 34.4273 32.7159ZM32.8232 33.9032C33.2166 33.9002 33.6099 33.8977 34.0041 33.8942C34.2014 33.893 34.3979 33.8913 34.5947 33.89C34.6238 33.89 34.6528 33.8896 34.6819 33.8896C34.1049 35.0828 33.46 36.2902 33.0145 37.5492C32.6921 37.1606 32.3936 36.7527 32.1228 36.3226C31.6697 35.6026 31.3575 34.7937 30.8509 34.1078C30.7937 34.0305 30.7241 33.966 30.6476 33.919C31.3724 33.9135 32.0976 33.9079 32.8232 33.9032ZM30.5469 35.7563C30.7668 36.1732 30.9778 36.5956 31.2319 36.991C31.4254 37.2921 31.6329 37.5847 31.8507 37.8683C31.8597 37.9251 31.8768 37.9827 31.9058 38.0421C32.025 38.2872 32.1339 38.5349 32.227 38.7912C32.2573 38.8745 32.3731 39.1171 32.4098 39.2922C31.9699 39.9618 31.5304 40.6323 31.0905 41.3024C31.006 41.4318 30.9218 41.5617 30.839 41.6915C30.8377 40.7075 30.8274 39.7209 30.7476 38.7408C30.6669 37.7555 30.4614 36.7484 30.5469 35.7563ZM35.2238 44.497C35.0214 44.506 34.819 44.5145 34.6161 44.5137C34.0297 44.5111 33.4442 44.4663 32.8595 44.415C31.9596 44.3364 31.0598 44.2476 30.1582 44.263C30.165 44.1733 30.1714 44.0836 30.177 43.9939C30.2253 44.0272 30.2769 44.0529 30.3299 44.0678C30.6425 44.1575 30.9047 43.9585 31.0128 43.68C31.2827 42.9847 31.7205 42.3642 32.1271 41.744C32.4008 41.3281 32.6737 40.9108 32.9471 40.4948C33.2174 40.9821 33.4959 41.4652 33.8004 41.9315C34.0105 42.2548 34.2343 42.5683 34.4713 42.8724C34.7024 43.1692 35.0124 43.4579 35.1359 43.8205C35.1581 43.8854 35.1884 43.941 35.2238 43.9879C35.2238 44.1588 35.2238 44.3283 35.2238 44.497ZM34.8339 41.4848C34.3833 40.807 33.9904 40.0929 33.6009 39.3784C33.6513 39.3182 33.6902 39.2413 33.7107 39.1448C33.9981 37.8021 34.6106 36.5379 35.2238 35.2964C35.2238 37.5343 35.2238 39.7718 35.2238 42.0093C35.0867 41.8371 34.9526 41.6642 34.8339 41.4848ZM23.7801 27.5867L23.7836 27.6106L23.9476 27.599L24.103 27.6106L24.1047 27.5879L24.7761 27.5405L34.9069 27.7195L34.7989 22.5829L22.9243 22.5791L23.0131 27.5286L23.7801 27.5867ZM33.5868 24.0466V26.6223L25.3377 26.5471L25.3399 26.5437L24.3281 26.5117L24.2034 26.4814L24.2102 26.4006L24.0958 23.8616L33.5868 24.0466Z" fill="#FEF8E2"/>
<path d="M42.3272 32.6614C42.3678 31.4818 42.352 30.2996 42.2802 29.1213C42.2072 27.9251 42.232 26.5046 41.5896 25.451C41.3842 25.1148 41.0199 24.9171 40.6441 24.9073C40.2934 24.4981 39.9428 24.0881 39.5917 23.6786C39.57 23.5628 39.5319 23.4462 39.4756 23.3326C39.0523 22.4712 38.2404 21.9536 37.479 21.424C37.4051 21.3727 37.332 21.3211 37.2599 21.2681C37.2769 21.2784 37.1219 21.1558 37.1036 21.1391C36.931 20.9867 36.7734 20.8192 36.6133 20.6552C36.2323 20.2645 35.8142 19.9185 35.3359 19.6533C34.4027 19.1357 33.4208 18.7009 32.4778 18.1999C31.5199 17.6909 30.5747 17.1596 29.6407 16.6086C29.3127 16.416 28.8455 16.3947 28.5196 16.6086C27.7769 17.0981 27.0295 17.5832 26.2834 18.0705C26.0532 18.0428 25.8153 18.0842 25.6107 18.2132C24.3133 19.0306 22.9312 19.6294 21.5675 20.3178C20.2991 20.9585 19.0563 21.8703 18.4464 23.1955C18.414 23.2664 18.3871 23.3395 18.3666 23.4125C17.9062 23.8797 17.4846 24.3824 17.1391 24.9444C16.3358 26.2552 16.3054 27.703 16.2205 29.1931C16.138 30.652 15.9898 32.1246 15.9941 33.5865C15.9958 34.2258 16.0723 34.8558 16.1931 35.4772C16.0338 37.0249 15.9249 38.5782 15.8852 40.1345C15.8621 41.0233 15.8609 41.9125 15.8835 42.8012C15.8946 43.2309 15.9104 43.6592 15.9317 44.088C15.9616 44.6808 15.9493 45.1899 16.3362 45.6763C16.5685 45.968 17.0759 46.0701 17.4171 45.9616C17.4312 45.9569 17.4458 45.9527 17.4603 45.948C17.6418 45.8907 17.8152 45.784 17.9553 45.6439C18.0979 45.6358 18.241 45.6281 18.3836 45.62C18.8517 45.6131 19.3181 45.5862 19.7849 45.5405C19.8605 45.5333 19.9357 45.5192 20.0095 45.5C20.13 45.5311 20.2508 45.5627 20.3713 45.5952C21.1136 45.7955 21.7192 45.236 21.7772 44.5241C22.0074 41.6993 22.2009 38.8699 21.8473 36.0589C21.8943 35.7219 21.9434 35.3841 21.9933 35.0445C22.0288 34.8079 22.0091 34.5585 21.9314 34.3369C21.9968 34.1963 22.0403 34.0392 22.0595 33.8688C22.1245 33.299 21.6649 32.7678 21.1353 32.6217C20.8061 32.5307 20.4968 32.6063 20.203 32.7344C20.1667 32.6401 20.1308 32.5444 20.0962 32.4457C20.092 32.4342 20.0881 32.4222 20.0839 32.4099C20.1458 32.1053 20.1881 31.7944 20.2457 31.4754C20.2735 31.3251 20.3042 31.1833 20.3388 31.0462C20.414 31.0449 20.4883 31.0428 20.5588 31.0406C21.0204 31.0261 21.4864 30.9915 21.9481 31.0167C22.347 31.0381 22.8817 31.2127 23.369 31.2486C23.8768 31.2866 24.3918 31.2038 24.8932 31.1205C26.8126 31.2922 28.7451 31.3178 30.6759 31.3486C32.1656 31.3729 33.6557 31.3823 35.1458 31.3785C35.8782 31.3763 36.6116 31.3708 37.344 31.3626C37.6498 31.3588 38.0068 31.3661 38.3472 31.3234C38.3336 31.8243 38.3237 32.3244 38.3177 32.8254C37.9897 32.6678 37.5913 32.6465 37.2945 32.866C36.9041 33.1547 36.6333 33.4878 36.5582 33.9807C36.4894 34.4312 36.5061 34.8874 36.5009 35.3414C36.4928 36.2258 36.4839 37.1091 36.4757 37.9931C36.4672 38.8776 36.4582 39.7608 36.4501 40.6449C36.4424 41.4418 36.2985 42.3891 36.5535 43.157C36.5757 43.2245 36.6017 43.2894 36.6312 43.3526C36.6308 43.4252 36.6312 43.4986 36.6329 43.5738C36.6252 43.807 36.6278 44.0389 36.6432 44.2734C36.6688 44.6753 36.8926 45.0678 37.2364 45.2608C37.5204 45.4906 37.8855 45.5905 38.2874 45.5888C39.1928 45.5854 40.0991 45.5636 41.0045 45.5512C41.8019 45.5401 42.1713 44.8538 42.0757 44.1453C41.8826 42.7226 41.7724 41.2142 41.7353 39.7518C41.722 39.2449 41.7199 38.7375 41.7246 38.2301C42.0599 36.3933 42.2631 34.5282 42.3272 32.6614ZM31.7082 27.5778C30.3783 27.5206 29.0219 27.4275 27.7257 27.7939C26.1531 27.6611 24.5763 27.3891 23.0128 27.5287C23.0666 26.6468 23.0734 25.7632 23.032 24.88C23.0277 24.795 23.0132 24.7108 22.9919 24.6288C23.0162 24.4499 22.9974 24.2667 22.9334 24.0941C22.9334 24.0937 22.9334 24.0937 22.9334 24.0928C22.9321 23.9916 22.9329 23.8904 22.9355 23.7896C22.9402 23.5872 22.9526 23.3856 22.9701 23.184C22.9756 23.1161 22.9722 23.0495 22.9611 22.9833C23.1465 22.8496 23.3331 22.7168 23.5206 22.5848C24.2261 22.56 24.9325 22.5353 25.6385 22.5105C26.2565 22.7437 27.0902 22.6937 27.7718 22.563C27.8897 22.5754 28.0067 22.5878 28.1211 22.6027C28.8929 22.7014 29.6732 22.6719 30.45 22.6689C31.8163 22.6642 33.1838 22.6595 34.55 22.6544C34.568 22.8001 34.6094 22.9453 34.6722 23.0853C34.7196 23.19 34.7666 23.2963 34.8122 23.4031C34.8601 24.8411 34.9079 26.2795 34.9562 27.7183C33.8739 27.6709 32.7909 27.6244 31.7082 27.5778ZM26.7348 35.2231C26.769 35.3119 26.7698 35.4165 26.7147 35.5241C26.5174 35.9081 26.1284 37.1193 25.4984 36.7742C25.2067 36.6145 25.0982 36.2276 24.9368 35.9576C24.7485 35.642 24.5268 35.3486 24.3064 35.0556C24.2864 35.0292 24.2718 35.0031 24.2599 34.9771C24.1975 34.9224 24.1655 34.8558 24.1587 34.7861C24.1369 34.7849 24.1147 34.7827 24.0925 34.7819C23.6163 34.7605 23.6158 34.0588 24.0925 34.0417C24.3619 34.0323 24.6148 34.0652 24.8625 34.1361C25.0965 34.1212 25.3323 34.1391 25.5714 34.1383C25.9981 34.137 26.4162 34.0866 26.8326 33.9978C27.1841 33.9226 27.3819 34.3091 27.2576 34.5461C27.2559 34.6046 27.2362 34.6683 27.1922 34.7315C27.0607 34.9232 26.9022 35.074 26.7348 35.2231ZM27.7786 41.1868C27.7876 41.2069 27.7966 41.2266 27.8055 41.2466C27.8235 41.2701 27.8354 41.2958 27.841 41.321C27.8674 41.3769 27.8944 41.432 27.9234 41.4867C28.0336 41.6972 27.7146 41.8843 27.6035 41.6733C27.5121 41.4973 27.4305 41.3175 27.3575 41.1335C27.3379 41.1104 27.3199 41.0835 27.3046 41.0515C27.1739 40.7794 27.0632 40.4997 26.9778 40.2118C26.8386 40.2028 26.7036 40.1247 26.6473 39.9564C26.6058 39.8334 26.5533 39.7036 26.5059 39.5708C26.4696 39.5101 26.4418 39.4452 26.4273 39.3743C26.4226 39.3483 26.4196 39.3213 26.4196 39.2944C26.3876 39.1633 26.3688 39.0318 26.3799 38.9037C26.4 38.67 26.5431 38.4535 26.6913 38.2536C26.754 38.0286 26.8296 37.8078 26.9223 37.5917C27.0291 37.3393 27.1978 37.0988 27.2507 36.8293C27.3426 36.3612 28.0566 36.5611 27.9648 37.0266C27.9358 37.1731 27.8781 37.3068 27.8132 37.4383C27.8277 37.4819 27.8346 37.531 27.8299 37.5874C27.8213 37.6852 27.8077 37.7804 27.7893 37.874C27.9332 37.9961 28.0062 38.225 27.8674 38.4159C27.8751 39.1257 27.9264 39.8334 27.9738 40.5411C27.9781 40.6017 27.9695 40.6538 27.9516 40.6987C28.0387 40.905 27.9324 41.0963 27.7786 41.1868ZM23.3463 37.5741C23.2883 37.3807 23.2204 37.1906 23.1401 37.0053C23.079 36.8618 23.1973 36.7315 23.3117 36.7225C23.281 36.638 23.249 36.5538 23.2161 36.4697C23.1926 36.4095 23.2016 36.36 23.2285 36.3219C23.2238 36.3006 23.2186 36.2792 23.2148 36.2579C23.167 36.0251 23.5014 35.9299 23.5714 36.1596C23.6355 36.3689 23.7034 36.5773 23.773 36.784C23.8631 36.7913 23.9438 36.8767 23.9396 36.9677C23.9383 36.9908 23.9383 37.0134 23.9396 37.036C23.9404 37.0424 23.9408 37.0493 23.9417 37.0561C23.9417 37.0527 23.9426 37.0552 23.9438 37.0638C23.9485 37.0864 23.9554 37.1078 23.9618 37.13C23.9639 37.1347 23.9652 37.1402 23.9673 37.1449C23.9686 37.1483 23.9699 37.1518 23.9729 37.1573C23.9857 37.1851 23.9925 37.2133 23.9942 37.2406C24.0425 37.3303 24.0903 37.42 24.1373 37.5101C24.1616 37.5255 24.1843 37.546 24.2035 37.5763C24.4807 38.0166 24.7327 38.4702 24.9603 38.9387C25.0337 39.0899 24.8851 39.2586 24.7472 39.2137C24.7472 39.2146 24.748 39.215 24.748 39.2159C24.7728 39.271 24.7707 39.3239 24.7519 39.3688C24.8334 39.4183 24.8838 39.5212 24.8198 39.6169C24.5674 39.9966 24.3145 40.3762 24.0617 40.7559C24.0263 40.8097 23.9767 40.8345 23.9272 40.8401C23.8584 40.9421 23.7892 41.0433 23.7183 41.1446C23.6978 41.1745 23.6722 41.195 23.6462 41.2086C23.6128 41.3355 23.5804 41.4623 23.5475 41.5892C23.4877 41.8202 23.1307 41.7216 23.1905 41.4905C23.2024 41.4474 23.2131 41.4047 23.2242 41.3611C23.2097 41.3282 23.2037 41.2893 23.2118 41.2458C23.2131 41.239 23.2161 41.2261 23.2195 41.2095C23.2097 41.1792 23.2097 41.1454 23.2229 41.1095C23.2362 41.075 23.2498 41.0408 23.2635 41.0062C23.2648 41.0028 23.2656 40.9985 23.2665 40.9951C23.2456 40.741 23.2567 40.495 23.2959 40.2473C23.3071 39.956 23.3186 39.6651 23.3297 39.3735C23.3305 39.3585 23.3327 39.344 23.3361 39.3307C23.3297 39.244 23.3229 39.1573 23.316 39.0702C23.2857 38.89 23.2622 38.7085 23.2456 38.5244C23.2434 38.4971 23.2468 38.4723 23.2545 38.451C23.2532 38.4445 23.252 38.4386 23.2507 38.4322C23.2285 38.3331 23.2725 38.2622 23.3365 38.2284C23.3194 38.1669 23.3024 38.1054 23.2861 38.0435C23.2592 37.9397 23.3071 37.8671 23.3767 37.8364C23.3677 37.8078 23.3579 37.7804 23.3489 37.7522C23.331 37.6984 23.3378 37.6527 23.3587 37.6164C23.3553 37.6019 23.3519 37.5874 23.3463 37.5741ZM27.5941 44.1845C27.5787 44.1811 27.5646 44.1781 27.5493 44.1756C27.5501 44.1521 27.5446 44.1273 27.5335 44.1017C27.5305 44.0902 27.5258 44.0782 27.5211 44.0667C27.5236 44.0334 27.5155 43.9979 27.4929 43.9612C27.4592 43.9069 27.4237 43.8531 27.3887 43.7993C27.2413 43.5072 27.0833 43.221 26.9159 42.94C26.9629 42.8883 26.9821 42.8119 26.9402 42.7299C26.7071 42.2776 26.4384 41.851 26.1365 41.4452C26.0152 41.2513 25.8939 41.057 25.7726 40.8635C25.7636 40.849 25.7542 40.8375 25.7436 40.8268C25.7782 40.738 25.7491 40.65 25.6692 40.5941C25.6646 40.5906 25.6599 40.5872 25.6547 40.5838C25.5817 40.5326 25.4758 40.5616 25.4198 40.6257C25.3579 40.6342 25.3028 40.6739 25.2874 40.7572C25.2477 40.9716 25.1926 41.1847 25.1298 41.3957C25.05 41.35 24.9428 41.3555 24.886 41.4602C24.4832 42.1999 24.0425 42.9153 23.5612 43.6063C23.5014 43.693 23.5304 43.7771 23.5928 43.8275C23.5556 43.8689 23.5185 43.9104 23.4804 43.9509C23.4792 43.9522 23.4787 43.9543 23.477 43.9556C23.4386 43.977 23.4006 43.9983 23.3609 44.0184C23.3117 44.0423 23.2857 44.0833 23.2759 44.1277C23.0713 44.2106 23.1648 44.5296 23.3916 44.4779C23.4138 44.4733 23.436 44.4677 23.4578 44.463C23.4698 44.4643 23.4813 44.4656 23.4945 44.4651C24.8245 44.4083 26.1856 44.2443 27.4967 44.5433C27.7269 44.5945 27.8264 44.2375 27.5941 44.1845ZM25.2943 42.7995C25.2973 42.7944 25.2998 42.7897 25.3028 42.785C25.3049 42.791 25.3062 42.7974 25.3084 42.8042C25.3032 42.8021 25.2985 42.8012 25.2943 42.7995ZM31.0646 34.348C30.9796 34.225 31.0736 34.0259 31.2611 34.0631C31.4631 34.1037 31.6655 34.1383 31.8679 34.1677C31.9687 34.1515 32.0708 34.1451 32.1746 34.1515C32.4193 34.0417 32.6888 34.0204 32.9647 34.0405C33.1278 34.052 33.2876 34.064 33.446 34.0729C33.5869 34.0686 33.7275 34.0721 33.8671 34.0874C33.9525 34.0879 34.0388 34.0866 34.1255 34.084C34.1631 34.0721 34.1981 34.0716 34.2297 34.0798C34.278 34.0776 34.3262 34.0751 34.3753 34.0708C34.5453 34.0575 34.6051 34.2783 34.506 34.3873C34.5001 34.3941 34.4936 34.4009 34.4877 34.4078C34.4757 34.4389 34.4522 34.4663 34.4151 34.4876C34.36 34.5483 34.3057 34.6089 34.2519 34.6704C34.2541 34.7012 34.2485 34.7349 34.2297 34.7695C34.1849 34.8528 34.1387 34.9348 34.0913 35.0163C34.0896 35.021 34.0879 35.0266 34.0858 35.0313C34.0734 35.0638 34.0555 35.0907 34.0332 35.1129C34.0166 35.1402 34.0004 35.168 33.9837 35.1949C33.97 35.241 33.9555 35.2871 33.941 35.3332C33.9457 35.367 33.9423 35.4029 33.9265 35.44C33.7975 35.7351 33.6694 36.0298 33.5404 36.3249C33.5186 36.3736 33.4853 36.4022 33.4481 36.4138C33.3696 36.6273 33.2918 36.8413 33.2132 37.0548C33.1471 37.2359 32.9267 37.2227 32.8562 37.0548C32.8144 36.9527 32.7652 36.8554 32.7123 36.761C32.7033 36.7537 32.6943 36.7452 32.6862 36.7358C32.3634 36.3506 32.0687 35.9465 31.8013 35.5207C31.7586 35.4524 31.7714 35.3768 31.8137 35.3217C31.7159 35.1996 31.6117 35.0825 31.5002 34.9694C31.4498 34.919 31.4396 34.8523 31.4554 34.7938C31.4485 34.7849 31.4409 34.7763 31.4332 34.7674C31.4118 34.7447 31.3913 34.7221 31.3678 34.7007C31.3589 34.6922 31.3524 34.6841 31.3456 34.676C31.2845 34.6661 31.223 34.655 31.1615 34.6439C31.0219 34.6179 31.0005 34.4462 31.0646 34.348ZM30.6426 41.3137C30.6371 41.417 30.7319 41.4939 30.828 41.499C30.8468 41.4995 30.8647 41.5003 30.8835 41.5016C31.03 41.5084 31.0859 41.3709 31.0514 41.2612C31.0791 41.233 31.0996 41.195 31.1052 41.1476C31.1064 41.1352 31.1082 41.1232 31.1094 41.1108C31.2423 40.8443 31.3973 40.5915 31.5754 40.3523C31.5925 40.3293 31.6019 40.3066 31.607 40.2848C31.6608 40.284 31.7159 40.2579 31.7565 40.1956C31.9252 39.9372 32.26 39.6058 32.2442 39.2722C32.3868 39.2645 32.4582 39.0651 32.3574 38.9532C32.2967 38.8866 32.2339 38.834 32.1596 38.8037C32.1498 38.7619 32.1387 38.7239 32.1246 38.6923C31.982 38.3677 31.7599 38.0636 31.5664 37.768C31.4759 37.6301 31.3815 37.4435 31.2692 37.2816C31.2166 37.1595 31.165 37.0382 31.1129 36.916C31.0953 36.8058 31.0603 36.7025 31.0082 36.591C30.9061 36.3758 30.5871 36.5632 30.6883 36.7776C30.6905 36.7811 30.6909 36.7845 30.693 36.7879C30.6871 36.8233 30.6896 36.8609 30.7063 36.9002C30.7212 36.9361 30.7366 36.9711 30.7515 37.007C30.7263 37.039 30.7122 37.08 30.7084 37.1223C30.6943 37.1663 30.7007 37.2077 30.7187 37.244C30.7199 37.253 30.7212 37.262 30.7229 37.2705C30.7208 37.2923 30.7229 37.3166 30.7302 37.3427C30.7353 37.3602 30.74 37.3773 30.7447 37.3943C30.7584 37.4661 30.7729 37.537 30.7904 37.6079C30.737 37.648 30.7016 37.7134 30.7152 37.7954C30.7229 37.8424 30.7298 37.8898 30.7366 37.9367C30.6478 38.7725 30.6392 39.6088 30.7118 40.4467C30.7178 40.5146 30.7532 40.5625 30.7994 40.5915C30.7977 40.603 30.7964 40.6141 30.7951 40.6257C30.7221 40.849 30.655 41.0694 30.6426 41.3137ZM31.3704 38.4501C31.3691 38.4501 31.3682 38.4501 31.367 38.4501C31.3665 38.4463 31.3657 38.4411 31.3644 38.4373C31.367 38.4411 31.3682 38.4463 31.3704 38.4501ZM35.1889 39.0835C35.1919 39.288 35.1945 39.493 35.1975 39.6976C35.2709 40.3728 35.306 41.0498 35.3013 41.7297C35.3 41.9684 34.9297 41.9684 34.9314 41.7297C34.9318 41.6677 34.9314 41.6058 34.9314 41.5439C34.916 41.5298 34.9015 41.5119 34.8904 41.4892C34.7832 41.2688 34.7354 41.0301 34.6521 40.8016C34.4992 40.5163 34.354 40.2276 34.2165 39.9346C34.114 39.8014 34.0115 39.6694 33.906 39.5383C33.8509 39.4687 33.8526 39.3888 33.8846 39.3252C33.8778 39.3055 33.8735 39.2825 33.8739 39.2573C33.8757 39.1877 33.8778 39.1185 33.8791 39.0489C33.8804 38.9788 33.9162 38.9276 33.9636 38.8981C33.9534 38.8665 33.9542 38.8285 33.9713 38.7866C34.0217 38.6636 34.0725 38.5411 34.1229 38.4185C34.1024 38.3724 34.0973 38.3177 34.1221 38.2605C34.3826 37.6544 34.6196 37.0382 34.8618 36.4249C34.8691 36.3523 34.8763 36.2809 34.8836 36.2083C34.8878 36.1733 34.8994 36.1443 34.916 36.1195C34.9182 36.1063 34.9194 36.0926 34.9216 36.0789C34.925 36.0589 34.9314 36.0422 34.9387 36.0273C34.9741 35.8039 35.3312 35.8052 35.3068 36.0384C35.3034 36.0734 35.3 36.108 35.2966 36.1421C35.3025 36.1622 35.306 36.1848 35.3042 36.2105C35.2863 36.4646 35.2662 36.7183 35.2453 36.9728C35.253 37.1573 35.265 37.3405 35.2705 37.5212C35.2846 37.985 35.2987 38.4497 35.3132 38.9135C35.3158 39.0083 35.2594 39.0651 35.1889 39.0835ZM35.0553 44.1354C35.0202 44.1115 34.9886 44.0872 34.9583 44.0633C34.9032 43.9603 34.8293 43.8856 34.7162 43.8241C34.7123 43.8185 34.7072 43.8138 34.7033 43.8083C34.6427 43.7096 34.5748 43.6165 34.4992 43.5268C34.3096 43.1916 34.1084 42.8636 33.8936 42.5441C33.7569 42.2755 33.6211 42.006 33.487 41.7365C33.4533 41.6015 33.4212 41.4657 33.3943 41.3286C33.3888 41.2996 33.3764 41.277 33.3602 41.2577C33.3559 41.1903 33.3503 41.1228 33.3478 41.0545C33.3414 40.9216 33.1748 40.8255 33.068 40.8858C33.0492 40.8477 33.0305 40.8106 33.0125 40.7726C32.9198 40.5808 32.6192 40.7166 32.6743 40.9152C32.6909 40.9759 32.7093 41.0357 32.7268 41.0963C32.6525 41.1322 32.6012 41.2082 32.6384 41.3026C32.6401 41.3064 32.6418 41.3107 32.6439 41.315C32.6205 41.3218 32.5978 41.3329 32.5799 41.3487C32.4902 41.3197 32.3762 41.3508 32.3326 41.4645C32.3271 41.4798 32.3224 41.4956 32.3159 41.5106C32.3147 41.5136 32.3138 41.517 32.3125 41.5204C32.2762 41.6208 32.2416 41.7216 32.21 41.8236C32.1494 41.8215 32.0913 41.8475 32.0618 41.915C32.0554 41.9295 32.0494 41.9449 32.043 41.9594C32.0426 41.9607 32.0426 41.9611 32.0418 41.9629C32.0157 42.0239 31.9892 42.0854 31.9653 42.1474C31.9247 42.1585 31.888 42.1832 31.8632 42.2259C31.5933 42.6876 31.323 43.1501 31.0526 43.6118C30.7908 43.7767 30.6076 44.0184 30.5248 44.34C30.4927 44.4664 30.6153 44.6193 30.7524 44.5676C31.0424 44.4587 31.3366 44.3883 31.6343 44.3567C31.6723 44.3601 31.7108 44.3614 31.7488 44.3643C32.1396 44.4194 32.5282 44.4331 32.9211 44.4015C33.036 44.4058 33.1517 44.4079 33.2679 44.4092C33.2961 44.4284 33.3324 44.4382 33.3781 44.4331C33.455 44.4241 33.531 44.4182 33.6066 44.4147C33.6335 44.4677 33.6852 44.507 33.7646 44.5057C34.1635 44.4972 34.5624 44.4891 34.9617 44.4809C35.1539 44.4767 35.2035 44.2375 35.0553 44.1354ZM31.9226 43.9014C31.9192 43.9014 31.9149 43.9005 31.9115 43.9005C31.9196 43.8924 31.9282 43.8826 31.935 43.8723C31.9405 43.8817 31.9461 43.8916 31.9529 43.8997C31.9431 43.9005 31.9329 43.9005 31.9226 43.9014ZM33.0774 42.4053C33.083 42.3541 33.0885 42.3032 33.0932 42.252C33.1018 42.3101 33.109 42.3677 33.118 42.425C33.1056 42.4168 33.092 42.41 33.0774 42.4053Z" fill="#243B25"/>
<path d="M30.4914 44.6609C30.4748 44.9612 30.2501 45.2161 29.9358 45.2161C29.6471 45.2161 29.3639 44.9607 29.3806 44.6609C29.4011 44.2825 29.4079 43.905 29.4007 43.5266C29.3866 42.8104 30.497 42.8125 30.5115 43.5266C30.5192 43.905 30.5119 44.2834 30.4914 44.6609Z" fill="#FEF8E2"/>
<mask id="mask0_2181_8996" style="mask-type:luminance" maskUnits="userSpaceOnUse" x="11" y="14" width="36" height="32">
<path d="M11.7793 14H46.309V45.8126H11.7793V14Z" fill="white"/>
</mask>
<g mask="url(#mask0_2181_8996)">
<path d="M46.221 26.7581C44.4046 24.7487 42.5887 22.7393 40.7723 20.729C40.4353 20.3562 40.0975 19.9829 39.7605 19.61C39.6461 19.4832 39.5598 19.4285 39.4082 19.3482C38.2973 18.7601 37.1852 18.1738 36.0731 17.5887C34.5313 16.7776 32.9891 15.9679 31.4414 15.1671C30.8797 14.8771 30.3186 14.5863 29.7531 14.3035C29.5746 14.2138 29.2842 13.999 29.074 13.999C28.8344 13.9999 28.4987 14.2369 28.2908 14.3339C27.7061 14.6063 27.1244 14.8844 26.5436 15.1628C24.9685 15.9188 23.3972 16.6824 21.8264 17.4481C20.7186 17.9876 19.6111 18.5287 18.5041 19.0711C18.4503 19.0971 18.3794 19.1193 18.332 19.1556C18.086 19.3418 17.8938 19.7224 17.7042 19.9675C17.4279 20.3258 17.1482 20.6825 16.8654 21.0356C15.7981 22.372 14.6877 23.6737 13.5367 24.9383C12.9773 25.5538 12.4075 26.1602 11.8284 26.7581C11.7357 26.8547 11.8673 26.999 11.9664 26.932C11.9706 26.9375 11.9749 26.9431 11.98 26.9486C12.3896 27.3441 12.794 27.7451 13.2087 28.1351C13.4253 28.3392 13.5496 28.4199 13.7704 28.1987C13.9758 27.9924 14.1398 27.7178 14.3286 27.4931C14.499 27.2899 14.6741 27.0904 14.8539 26.8957C15.0841 26.6458 15.3224 26.4054 15.5679 26.1713C15.6021 26.229 15.6794 26.2589 15.7354 26.194C15.758 26.1671 15.7802 26.141 15.8028 26.1141C15.975 29.0465 15.8409 31.9703 15.805 34.9039C15.7695 37.7713 15.7964 40.6396 15.8297 43.5062C15.8379 44.2182 15.8468 44.931 15.8579 45.6425C15.8588 45.7027 15.9083 45.7535 15.969 45.7535C22.8181 45.7535 29.6681 45.7535 36.5177 45.7535C38.4395 45.7535 40.3614 45.7535 42.2829 45.7535C42.3427 45.7535 42.3943 45.7027 42.3939 45.6425C42.3798 43.3777 42.3708 41.1124 42.3653 38.8463C42.3572 35.6936 42.329 32.5374 42.3939 29.3851C42.4157 28.2965 42.44 27.2079 42.4631 26.1188C43.1076 26.8521 43.7529 27.5854 44.3969 28.3187C44.4392 28.3661 44.5105 28.355 44.5541 28.3187C45.1097 27.8515 45.6649 27.3834 46.221 26.9162C46.2688 26.8756 46.2582 26.7996 46.221 26.7581ZM20.066 31.1097C19.9652 31.6717 19.9302 32.2351 19.9661 32.8056C19.9699 32.871 20.0194 32.906 20.0707 32.9116C20.0707 37.1179 20.072 41.3247 20.072 45.531C19.5138 45.531 18.9556 45.531 18.3974 45.531C18.4209 39.9469 18.4435 34.3628 18.467 28.7782C18.4738 27.1912 18.4802 25.6033 18.4871 24.0163C18.4875 23.8736 18.2658 23.8728 18.265 24.0163C18.2411 29.6375 18.2184 35.2588 18.1954 40.8801C18.1894 42.4304 18.1826 43.9803 18.1761 45.531C17.4774 45.531 16.7787 45.531 16.08 45.531C16.051 43.6634 16.0322 41.7953 16.0211 39.9277C16.013 38.4252 16.0096 36.9223 16.0228 35.4202C16.0356 33.9391 16.1108 32.4601 16.1296 30.9794C16.1509 29.2895 16.121 27.5935 16.0142 25.9065C16.0138 25.8941 16.0108 25.8839 16.0074 25.8736C16.7937 24.946 17.5761 24.0137 18.3794 23.101C18.8069 22.6159 19.2439 22.1384 19.7004 21.681C19.8234 21.558 19.9238 21.4439 20.0677 21.3564C20.7989 20.9109 21.5834 20.5355 22.3359 20.1281C24.4701 18.9724 26.6051 17.8163 28.7392 16.6606C28.8221 16.6158 28.9416 16.5752 29.0134 16.5128C29.1449 16.6363 29.4409 16.7302 29.5814 16.8067C30.2417 17.165 30.9015 17.5233 31.5618 17.8825C31.5618 19.4618 31.5618 21.0412 31.5618 22.621C29.7373 22.6257 27.9124 22.5996 26.0883 22.5428C26.0883 22.5424 26.0883 22.5424 26.0883 22.5415C26.0883 21.7352 26.0883 20.9285 26.0883 20.1221C26.0883 19.9795 25.8662 19.9786 25.8662 20.1221C25.8662 20.9267 25.8662 21.7318 25.8662 22.5368C24.933 22.5065 24.0007 22.4677 23.0684 22.4215C23.0684 22.1179 23.0671 21.8138 23.0671 21.5097C23.0671 21.004 23.0581 20.4962 23.0727 19.9901C23.0765 19.8475 22.8548 19.8475 22.8506 19.9901C22.8271 20.8131 22.8318 21.6383 22.839 22.4621C22.8181 22.4976 22.819 22.5462 22.8403 22.5834C22.8437 22.9917 22.848 23.3987 22.8484 23.8061C22.8531 25.6956 22.8595 27.5854 22.8817 29.4748C22.8873 29.9766 22.8638 30.4934 22.9155 30.9931C22.9155 30.9952 22.9159 30.9965 22.9168 30.9986C21.987 30.973 21.0581 30.944 20.1292 30.9098C20.0079 30.9034 19.9878 31.0546 20.066 31.1097ZM29.045 16.4842C29.0672 16.4663 29.0612 16.4753 29.045 16.4842ZM34.6859 27.3791C34.6859 27.4551 34.6859 27.5303 34.6859 27.6059C33.7211 27.5935 32.7568 27.582 31.792 27.5696C31.7514 27.5295 31.6775 27.5286 31.6344 27.5675C30.6325 27.5551 29.6301 27.5418 28.6277 27.5295C28.5876 27.4936 28.5188 27.4931 28.4753 27.5273C27.1466 27.5107 25.8179 27.4944 24.4901 27.4769C24.0323 27.4718 23.5749 27.4654 23.1171 27.4598C23.0885 25.8557 23.0974 24.2507 23.1448 22.647C26.98 22.8358 30.8204 22.8888 34.6594 22.8063C34.6445 24.3293 34.6624 25.8557 34.6859 27.3791ZM34.7534 30.9918C34.7572 31.0303 34.7769 31.058 34.8029 31.0751C31.8851 31.1165 28.9673 31.1131 26.0494 31.0653C26.0674 31.0473 26.0793 31.0234 26.0797 30.9918C26.1054 29.9015 26.1314 28.8111 26.1571 27.7212C26.9143 27.7306 27.6719 27.7404 28.4291 27.7494C28.4031 28.2709 28.339 28.7876 28.3202 29.3104C28.3155 29.453 28.5372 29.453 28.5423 29.3104C28.5607 28.7885 28.6247 28.2721 28.6512 27.752C29.6322 27.7643 30.6137 27.7767 31.5951 27.7891C31.5695 28.8568 31.5447 29.9241 31.5191 30.9918C31.5157 31.1345 31.7378 31.1345 31.7412 30.9918C31.7668 29.925 31.7916 28.859 31.8168 27.7921C32.316 27.7981 32.8149 27.8045 33.3137 27.8105C33.7728 27.816 34.2323 27.8224 34.6915 27.828C34.7009 28.4289 34.7098 29.0298 34.7179 29.6294C34.7252 30.08 34.7064 30.5425 34.7534 30.9918ZM25.8829 31.0627C24.9668 31.0469 24.0511 31.0268 23.135 31.0025C23.135 30.9991 23.1359 30.9957 23.135 30.9918C23.0923 30.5801 23.1098 30.1556 23.1043 29.743C23.0953 29.0558 23.0906 28.3687 23.0855 27.6819C24.0357 27.6935 24.9856 27.7058 25.9358 27.7178C25.9102 28.8086 25.8841 29.9002 25.8585 30.991C25.8572 31.0221 25.8675 31.0456 25.8829 31.0627ZM21.7342 45.531C21.2537 45.531 20.7741 45.531 20.2941 45.531C20.2941 41.3375 20.2923 37.1444 20.2923 32.9508C20.8053 33.0158 21.3161 33.026 21.8316 32.979C21.8316 37.1375 21.8316 41.2948 21.8316 45.4533C21.8316 45.4875 21.8444 45.5131 21.8636 45.531C21.8204 45.531 21.7769 45.531 21.7342 45.531ZM36.2926 45.531C33.9953 45.531 31.6985 45.531 29.4007 45.531C29.3961 41.3644 29.3909 37.1973 29.3858 33.0307C31.6882 33.0307 33.9906 33.0307 36.2926 33.0307C36.2926 37.1982 36.2926 41.3644 36.2926 45.531ZM36.3857 32.8091C31.9466 32.8091 27.5062 32.8091 23.0671 32.8091C22.9245 32.8091 22.9236 33.0307 23.0671 33.0307C25.0992 33.0307 27.1317 33.0307 29.1637 33.0307C29.1684 37.1973 29.1735 41.3644 29.1791 45.531C26.793 45.531 24.4073 45.531 22.0207 45.531C22.04 45.5131 22.0532 45.4875 22.0532 45.4533C22.0532 41.2756 22.0532 37.0974 22.0532 32.9197C22.0532 32.9026 22.0498 32.8876 22.0442 32.8744C22.0579 32.8095 22.0242 32.7377 21.9417 32.7467C21.3626 32.8091 20.7873 32.8022 20.2103 32.7185C20.2009 32.7172 20.192 32.7172 20.183 32.7181C20.157 32.1859 20.1886 31.6606 20.2851 31.1349C25.9572 31.3416 31.6348 31.3805 37.3095 31.2506C37.3471 31.3301 37.4773 31.3288 37.5119 31.2459C37.7566 31.2404 38.0014 31.2344 38.2452 31.228C38.2251 31.7413 38.2059 32.2543 38.1859 32.7676C38.1859 32.7723 38.1867 32.7757 38.1867 32.78C37.6097 32.8261 37.0344 32.8287 36.4562 32.7868C36.4267 32.7847 36.4032 32.7937 36.3857 32.8091ZM42.1586 43.086C42.162 43.9013 42.1663 44.7157 42.171 45.531C40.8128 45.531 39.4539 45.531 38.0957 45.531V45.5302C38.1081 42.459 38.0658 39.3831 37.9783 36.3133C37.9604 35.6957 37.9488 35.0747 37.8963 34.4589C37.8848 34.3175 37.6623 34.3162 37.6746 34.4589C37.787 35.7845 37.7806 37.1264 37.804 38.4555C37.8352 40.1942 37.8549 41.9337 37.8668 43.6723C37.8711 44.2912 37.8758 44.9109 37.8728 45.5297V45.5302C37.4201 45.5302 36.967 45.5302 36.5138 45.5302C36.5138 41.364 36.5138 37.1965 36.5138 33.0303C36.5339 33.0303 36.5531 33.0303 36.5732 33.0303C36.5924 33.0303 36.6091 33.026 36.6236 33.0183C37.1754 33.0499 37.7255 33.0427 38.2768 32.9936C38.3622 32.9859 38.396 32.9013 38.378 32.8385C38.3956 32.8206 38.4079 32.7971 38.4084 32.7655C38.4297 32.2141 38.4511 31.6636 38.4724 31.1123C38.4746 31.0537 38.4195 30.9999 38.3614 31.0012C38.0816 31.0089 37.8019 31.0153 37.5217 31.0221C37.529 28.6915 37.5196 26.3366 37.3223 24.0141C37.3108 23.8728 37.0883 23.8715 37.1006 24.0141C37.2975 26.3379 37.3078 28.695 37.2997 31.0277C36.5155 31.0456 35.7306 31.0606 34.9464 31.0717C34.9669 31.0537 34.9793 31.0268 34.975 30.9897C34.8593 29.8827 34.9298 28.7308 34.9221 27.6196C34.9144 26.4767 34.9097 25.3334 34.9071 24.1901C34.9071 23.7284 34.9071 23.2663 34.9071 22.8046C34.9071 22.7957 34.9063 22.7867 34.9041 22.7794C34.9041 22.7551 34.9041 22.7316 34.9041 22.7077C34.9063 22.6944 34.9063 22.6816 34.9041 22.6684C34.9041 22.6483 34.9041 22.6291 34.9041 22.609C34.9041 22.155 34.8965 21.6993 34.9097 21.2453C34.914 21.1027 34.6919 21.1027 34.6876 21.2453C34.6752 21.6904 34.668 22.1362 34.6616 22.5821C33.7015 22.603 32.741 22.6154 31.7809 22.6193C31.7809 21.0801 31.7809 19.5409 31.7809 18.0016C32.032 18.1379 32.2827 18.2737 32.5334 18.4104C34.4796 19.4674 36.4182 20.5398 38.3721 21.5815C38.5006 21.6506 38.5237 21.7002 38.6595 21.8522C39.0114 22.2464 39.3629 22.6406 39.7152 23.0357C39.7776 23.1057 39.8412 23.177 39.904 23.2471C39.8809 28.5989 39.857 33.9506 39.8335 39.3033C39.8267 40.8365 39.8203 42.3706 39.8135 43.9038C39.813 44.0465 40.0347 44.0473 40.0356 43.9038C40.0582 38.5499 40.0825 33.1956 40.1056 27.8416C40.112 26.393 40.118 24.9447 40.1244 23.4961C40.7881 24.2401 41.4522 24.9836 42.1159 25.728C42.1586 25.7763 42.2013 25.8237 42.244 25.8719C42.1953 28.1709 42.1462 30.4695 42.1394 32.7689C42.1304 36.2078 42.1428 39.6471 42.1586 43.086ZM44.4875 28.0851C43.8037 27.3074 43.1199 26.5301 42.437 25.7528C41.7998 25.0383 41.1613 24.3238 40.5241 23.6088C40.0825 23.1143 39.6414 22.6193 39.1998 22.1247C39.0127 21.915 38.8303 21.6421 38.6112 21.4653C38.4835 21.3624 38.3093 21.2957 38.1658 21.2184C37.7703 21.0032 37.3748 20.7892 36.9798 20.574C35.8023 19.9346 34.6244 19.2944 33.4465 18.6547C32.3498 18.0589 31.2517 17.4627 30.1546 16.8665C29.8479 16.6999 29.5408 16.5329 29.2342 16.3663C29.1095 16.298 29.0561 16.2579 28.9203 16.3095C28.667 16.4061 28.421 16.5803 28.1823 16.7093C27.7146 16.963 27.2474 17.2158 26.7793 17.4695C25.5527 18.134 24.3253 18.7982 23.0987 19.4631C22.1476 19.9778 21.1965 20.4933 20.2458 21.0083C20.0036 21.139 19.8392 21.2317 19.6406 21.4273C18.669 22.3874 17.7901 23.4354 16.9056 24.4745C16.5857 24.8499 16.2658 25.2258 15.9468 25.6012C15.9105 25.5862 15.8678 25.5884 15.8302 25.6221C15.1896 26.1987 14.5908 26.8205 14.045 27.4889C13.9416 27.6157 13.8477 27.7532 13.7387 27.8745C13.6307 27.9954 13.5585 28.0851 13.4172 28.0279C13.3266 27.9911 13.2344 27.8515 13.1613 27.7801C12.8201 27.4509 12.4793 27.1207 12.1372 26.7915C12.1312 26.785 12.1248 26.7803 12.118 26.7761C13.2275 25.6234 14.3046 24.4399 15.3437 23.2236C15.884 22.5911 16.4149 21.9505 16.935 21.3013C17.1956 20.9767 17.4531 20.65 17.7081 20.322C17.9357 20.029 18.1398 19.6809 18.4004 19.4183C18.5849 19.2325 18.8727 19.1373 19.114 19.0194C19.6735 18.7456 20.2334 18.4723 20.7933 18.1985C23.4728 16.8908 26.137 15.5233 28.8635 14.3155C28.9087 14.2954 29.0164 14.2437 29.0651 14.2267C29.0736 14.2292 29.0898 14.2318 29.0988 14.2348C29.1594 14.2531 29.2197 14.2899 29.2769 14.3168C29.7206 14.5282 30.1575 14.7558 30.5944 14.9805C32.0662 15.7355 33.5306 16.5047 34.996 17.2739C36.2845 17.9504 37.5726 18.6295 38.8589 19.3094C39.0178 19.3931 39.1763 19.4768 39.3339 19.5609C39.3638 19.5763 39.526 19.6698 39.4821 19.634C39.7041 19.8133 39.8895 20.085 40.0795 20.2951C42.0236 22.4459 43.9677 24.5967 45.9118 26.7475C45.9353 26.7735 45.9592 26.7996 45.9827 26.826C45.4843 27.2454 44.9863 27.6653 44.4875 28.0851ZM23.0368 34.165C23.0517 34.165 23.0675 34.165 23.0829 34.165C23.1986 36.8066 23.2089 39.4515 23.1145 42.093C23.1137 42.0998 23.1132 42.1058 23.1137 42.1131C23.0855 42.9066 23.0475 43.7001 23.0001 44.4932C22.9966 44.553 23.0539 44.6042 23.1111 44.6042C24.7118 44.6042 26.3129 44.6042 27.9136 44.6042C27.9734 44.6042 28.0247 44.553 28.0247 44.4932C28.0247 41.5438 28.0247 38.5943 28.0247 35.644C28.0268 35.6316 28.0268 35.6197 28.0247 35.609C28.0247 35.5274 28.0247 35.4463 28.0247 35.3647C28.0247 34.9274 28.0247 34.4905 28.0247 34.0527C28.0247 33.9929 27.9734 33.9417 27.9136 33.9417C26.2882 33.9417 24.6623 33.9417 23.0368 33.9417C22.8941 33.9434 22.8941 34.165 23.0368 34.165ZM27.8035 44.383C26.3078 44.383 24.8117 44.383 23.3165 44.383C24.1566 43.144 24.9194 41.856 25.6023 40.523C26.248 41.8098 26.9322 43.0757 27.6561 44.3194C27.6911 44.38 27.7556 44.3843 27.8035 44.3574C27.8035 44.3655 27.8035 44.374 27.8035 44.383ZM27.8035 41.6706C27.4251 40.9757 27.0458 40.2813 26.6678 39.5864C26.5995 39.4613 26.4505 39.2819 26.4244 39.1406C26.4052 39.0372 26.3808 39.1572 26.494 39.0206C26.6251 38.863 26.6994 38.6127 26.7827 38.4273C27.1351 37.65 27.4208 36.839 27.8035 36.0754C27.8035 37.9409 27.8035 39.8055 27.8035 41.6706ZM23.8008 34.165C24.954 34.165 26.1062 34.165 27.2589 34.165C26.6414 35.2127 26.1459 36.3222 25.5788 37.3959C25.0449 36.2876 24.3941 35.2421 23.8008 34.1659C23.8008 34.1659 23.8008 34.1659 23.8008 34.165ZM23.3729 36.1672C23.8504 37.0022 24.3082 37.8491 24.7374 38.7105C24.7836 38.8032 24.9736 39.0821 24.9719 39.1098C24.9698 39.1418 24.9172 39.1974 24.9001 39.2247C24.7917 39.3977 24.6836 39.5706 24.5756 39.7436C24.1677 40.3958 23.759 41.0483 23.3507 41.7001C23.4088 39.8568 23.4165 38.0114 23.3729 36.1672ZM24.8463 39.7287C24.9407 39.5783 25.0586 39.4267 25.1359 39.267C25.2324 39.065 25.0911 38.9249 24.9898 38.7212C24.4816 37.6949 23.9358 36.6883 23.3597 35.6983C23.3456 35.1871 23.3276 34.6763 23.3046 34.1659C23.4075 34.1659 23.51 34.1659 23.6129 34.1659C23.592 34.1962 23.586 34.2368 23.6086 34.2782C24.2365 35.416 24.9292 36.5187 25.4784 37.6975C25.5011 37.7466 25.5425 37.7611 25.5822 37.753C25.6159 37.753 25.6492 37.7367 25.6697 37.6975C26.2805 36.5661 26.7964 35.3869 27.4498 34.2782C27.4746 34.2359 27.4686 34.1962 27.4473 34.1659C27.5656 34.1659 27.6843 34.1659 27.8022 34.1659C27.8022 34.6447 27.8022 35.123 27.8022 35.6022C27.2982 36.5012 26.9745 37.4873 26.5423 38.4205C26.4432 38.6353 26.1536 38.9766 26.2062 39.2068C26.2335 39.3281 26.3514 39.4737 26.4099 39.5809C26.8737 40.4321 27.3384 41.2837 27.8022 42.1348C27.8022 42.4838 27.8022 42.8331 27.8022 43.1816C27.8022 43.4981 27.8022 43.8146 27.8022 44.1306C27.0659 42.8613 26.3702 41.5694 25.7146 40.2565C25.6548 40.1357 25.481 40.2288 25.5147 40.3466C25.4767 40.3411 25.437 40.3556 25.4144 40.4009C24.7631 41.6719 24.0387 42.9019 23.2448 44.0888C23.2806 43.44 23.311 42.7908 23.3345 42.1425C23.8388 41.3383 24.3424 40.5333 24.8463 39.7287ZM30.4364 34.165C30.4518 34.165 30.4676 34.165 30.4826 34.165C30.5048 34.666 30.5227 35.1678 30.5372 35.6697C30.5124 35.7004 30.5039 35.7431 30.5304 35.788C30.5338 35.7944 30.5376 35.8012 30.5415 35.8072C30.5979 37.8824 30.5902 39.958 30.5171 42.0323C30.5129 42.0383 30.5095 42.0447 30.5056 42.0507C30.477 42.0956 30.486 42.14 30.5116 42.1707C30.486 42.8771 30.4522 43.5844 30.4117 44.2899C30.4014 44.3049 30.3916 44.3202 30.3813 44.3348C30.3455 44.3869 30.3634 44.4381 30.4014 44.4684C30.4006 44.4765 30.4006 44.4855 30.4001 44.4941C30.3967 44.5538 30.4539 44.6047 30.5112 44.6047C32.1119 44.6047 33.7126 44.6047 35.3137 44.6047C35.3735 44.6047 35.4243 44.5538 35.4243 44.4941C35.4243 41.4515 35.4243 38.409 35.4243 35.3664C35.4243 34.9287 35.4243 34.4918 35.4243 34.054C35.4243 33.9942 35.3735 33.9434 35.3137 33.9434C33.6878 33.9434 32.0623 33.9434 30.4364 33.9434C30.2934 33.9434 30.2934 34.165 30.4364 34.165ZM35.2027 41.8338C34.8277 41.0765 34.4527 40.3197 34.0786 39.5625C34.0214 39.4472 33.8774 39.2619 33.8663 39.1337C33.8655 39.1269 33.8595 39.1192 33.8539 39.1115C33.8796 39.1055 33.9526 38.9966 33.9637 38.9744C34.0581 38.7878 34.1414 38.5956 34.2204 38.4013C34.5595 37.5702 34.7927 36.6887 35.2027 35.8875C35.2027 37.87 35.2027 39.8517 35.2027 41.8338ZM31.101 34.165C32.2532 34.165 33.4059 34.165 34.5591 34.165C33.9752 35.158 33.5563 36.2296 33.0263 37.249C32.4779 36.1651 31.6921 35.2251 31.101 34.1659C31.101 34.1659 31.101 34.1659 31.101 34.165ZM30.6295 44.3621C31.464 43.1295 32.2221 41.8483 32.9016 40.523C33.5473 41.8098 34.2315 43.0757 34.9554 44.3194C35.0267 44.4428 35.2193 44.3313 35.1467 44.2071C34.3942 42.913 33.6835 41.5954 33.0152 40.2565C32.9554 40.1357 32.7815 40.2288 32.8153 40.3466C32.7777 40.3411 32.7376 40.3556 32.7149 40.4009C32.0939 41.6138 31.4063 42.7904 30.6542 43.9269C30.6876 43.3183 30.7145 42.7088 30.7362 42.0998C31.2312 41.3093 31.7258 40.5188 32.2199 39.7287C32.3143 39.5783 32.4322 39.4267 32.5095 39.267C32.606 39.065 32.4646 38.9249 32.3634 38.7212C31.8629 37.7107 31.326 36.7203 30.7606 35.7453C30.7461 35.2187 30.7273 34.6925 30.7038 34.1659C30.7734 34.1659 30.8426 34.1659 30.9122 34.1659C30.8913 34.1962 30.8853 34.2368 30.9088 34.2782C31.5345 35.3989 32.3771 36.385 32.9263 37.5501C32.949 37.5984 32.9904 37.6129 33.0297 37.6052C33.0634 37.6052 33.0967 37.5894 33.1181 37.5501C33.6964 36.4751 34.1303 35.3327 34.75 34.2782C34.7747 34.2359 34.7683 34.1962 34.747 34.1659C34.8986 34.1659 35.0502 34.1659 35.2018 34.1659C35.2018 34.6165 35.2018 35.0666 35.2018 35.5172C35.1702 35.5193 35.1399 35.5343 35.1194 35.571C34.6483 36.4089 34.4019 37.349 34.0483 38.2373C33.9441 38.4991 33.8194 38.7459 33.6998 39.0001C33.6498 39.1055 33.6327 39.0979 33.6515 39.2021C33.672 39.3157 33.7766 39.4558 33.827 39.557C34.2571 40.4261 34.6876 41.2948 35.1177 42.1639C35.1373 42.204 35.1694 42.2203 35.2018 42.2203C35.2018 42.5414 35.2018 42.8622 35.2018 43.1833C35.2018 43.5835 35.2018 43.9837 35.2018 44.3834C33.6776 44.3834 32.1524 44.3834 30.6282 44.3834C30.6286 44.3762 30.6295 44.3689 30.6295 44.3621ZM30.773 36.2133C31.2406 37.0342 31.6895 37.8653 32.111 38.7105C32.1571 38.8032 32.3476 39.0821 32.3455 39.1098C32.3434 39.1418 32.2908 39.1974 32.2737 39.2247C32.1657 39.3977 32.0572 39.5706 31.9492 39.7436C31.5503 40.3817 31.1505 41.0193 30.7516 41.6574C30.808 39.8435 30.8148 38.0276 30.773 36.2133ZM20.3415 21.5938C20.3291 21.4512 20.5516 21.4529 20.5635 21.5938C20.7651 23.9757 20.7707 26.3917 20.7617 28.7804C20.7617 28.9235 20.5392 28.923 20.5401 28.7804C20.549 26.3908 20.5435 23.9748 20.3415 21.5938ZM28.6952 20.1008C28.7336 18.9664 28.7725 17.8321 28.8109 16.6978C28.8156 16.5551 29.0377 16.5551 29.0326 16.6978C28.9942 17.8321 28.9557 18.9664 28.9169 20.1008C28.9122 20.2434 28.6897 20.2438 28.6952 20.1008ZM33.5874 23.8232C32.0692 23.8232 30.5509 23.8232 29.0326 23.8232C29.0044 23.7335 28.8618 23.7335 28.8246 23.8232C27.3204 23.8232 25.8158 23.8232 24.3108 23.8232C24.2723 23.7194 24.0925 23.731 24.0964 23.8604C24.1241 24.7466 24.0925 25.6276 24.0118 26.5104C24.0037 26.6005 24.0904 26.633 24.1579 26.6087C24.1724 26.6163 24.1895 26.6219 24.2104 26.6219C27.3354 26.6219 30.4612 26.6219 33.5866 26.6219C33.7292 26.6219 33.7301 26.3998 33.5866 26.3998C32.0628 26.3998 30.5385 26.3998 29.0147 26.3998C28.992 25.6153 28.9984 24.8303 29.0309 24.0457C30.5124 24.0457 31.994 24.0457 33.4756 24.0457C33.4756 24.598 33.4756 25.1493 33.4756 25.7011C33.4756 25.8438 33.6976 25.8446 33.6976 25.7011C33.6976 25.1126 33.6976 24.5236 33.6976 23.9351C33.6981 23.8745 33.6472 23.8232 33.5874 23.8232ZM28.793 26.3994C27.276 26.3994 25.7603 26.3994 24.2433 26.3994C24.3108 25.6153 24.3398 24.832 24.3227 24.0453C25.8179 24.0453 27.3136 24.0453 28.8088 24.0453C28.7764 24.8294 28.7704 25.6144 28.793 26.3994ZM44.3517 26.2089C44.4392 26.3229 44.2453 26.4331 44.1599 26.3212C43.2344 25.1134 42.2449 23.9565 41.1968 22.8529C41.0981 22.7491 41.2553 22.5919 41.354 22.6957C42.4153 23.813 43.4142 24.9853 44.3517 26.2089ZM43.1605 25.8147C43.2408 25.9343 43.0482 26.0458 42.9692 25.927C42.6882 25.5055 42.3807 25.1049 42.0471 24.7239C41.9532 24.6163 42.1099 24.4596 42.2043 24.5668C42.5502 24.9618 42.8693 25.3778 43.1605 25.8147ZM35.8937 18.7238C34.0547 17.8423 32.2588 16.8746 30.5116 15.8227C30.3899 15.7488 30.5013 15.557 30.6239 15.6309C32.3715 16.6824 34.167 17.6506 36.006 18.5321C36.135 18.594 36.0218 18.7858 35.8937 18.7238ZM37.2505 19.5251C37.1006 19.4285 36.9503 19.3329 36.8 19.2363C36.68 19.1599 36.7919 18.9677 36.9123 19.045C37.0626 19.1415 37.213 19.2372 37.3629 19.3337C37.4829 19.4102 37.3714 19.6024 37.2505 19.5251ZM25.0125 16.9237C23.8307 17.6045 22.6481 18.2861 21.4655 18.9677C21.3408 19.0395 21.2289 18.8477 21.3532 18.776C22.535 18.0952 23.7176 17.4136 24.9001 16.7319C25.024 16.6606 25.1359 16.8519 25.0125 16.9237ZM17.4659 22.3707C16.4153 23.5525 15.3651 24.7338 14.3149 25.9155C14.2201 26.0223 14.0633 25.8651 14.1577 25.7583C15.2079 24.5766 16.2585 23.3953 17.3087 22.2135C17.4036 22.1068 17.5603 22.2644 17.4659 22.3707Z" fill="black"/>
</g>
</svg>
