<svg width="59" height="59" viewBox="0 0 59 59" fill="none" xmlns="http://www.w3.org/2000/svg">
<circle cx="29.5" cy="29.5" r="29.5" fill="#F9B420"/>
<mask id="mask0_2181_9010" style="mask-type:luminance" maskUnits="userSpaceOnUse" x="17" y="30" width="28" height="15">
<path d="M17.7793 30.2803H44.6138V44.5621H17.7793V30.2803Z" fill="white"/>
</mask>
<g mask="url(#mask0_2181_9010)">
<path d="M43.5246 44.5886L17.8193 42.2786L18.897 30.2852L44.6023 32.5952L43.5246 44.5886Z" fill="#243B25"/>
</g>
<path d="M42.3417 43.341L19.2061 41.2616L20.0803 31.5332L43.2159 33.6116L42.3417 43.341Z" fill="#AAC641"/>
<path d="M19.8584 34.0105C19.9812 34.0438 20.1087 34.0677 20.24 34.0795C21.4432 34.1877 22.5064 33.2999 22.6146 32.0966C22.625 31.9832 22.6264 31.8712 22.6193 31.761L20.0811 31.5332L19.8584 34.0105Z" fill="#243B25"/>
<path d="M19.4287 38.7838C19.5557 38.7731 19.6851 38.7721 19.8164 38.7838C21.0196 38.8921 21.9075 39.9557 21.7992 41.1595C21.7893 41.2724 21.7711 41.3826 21.7448 41.4895L19.2061 41.2612L19.4287 38.7838Z" fill="#243B25"/>
<path d="M42.5638 40.865C42.4405 40.8317 42.314 40.8073 42.1822 40.796C40.979 40.6878 39.9158 41.5756 39.808 42.7793C39.7972 42.8923 39.7963 43.0043 39.8033 43.1145L42.3411 43.3423L42.5638 40.865Z" fill="#243B25"/>
<path d="M42.9931 36.0884C42.8661 36.0997 42.7362 36.1002 42.6054 36.088C41.4021 35.9802 40.5143 34.917 40.6221 33.7138C40.6325 33.6003 40.6507 33.4897 40.677 33.3828L43.2153 33.6106L42.9931 36.0884Z" fill="#243B25"/>
<path d="M34.129 37.7003C33.9701 39.4727 32.404 40.78 30.6322 40.6216C28.8598 40.4622 27.552 38.8961 27.7114 37.1238C27.8708 35.3514 29.4364 34.0436 31.2087 34.2025C32.9811 34.3624 34.2889 35.9285 34.129 37.7003Z" fill="#243B25"/>
<path d="M25.773 36.9483C25.6858 37.9144 24.8327 38.6274 23.8666 38.5402C22.9005 38.4539 22.188 37.5999 22.2747 36.6338C22.3619 35.6682 23.215 34.9552 24.1807 35.0424C25.1472 35.1291 25.8602 35.9822 25.773 36.9483Z" fill="#243B25"/>
<path d="M39.8086 38.21C39.7218 39.1761 38.8682 39.8886 37.9022 39.8018C36.9361 39.7156 36.2236 38.8615 36.3098 37.8959C36.397 36.9298 37.2506 36.2173 38.2167 36.304C39.1823 36.3907 39.8948 37.2443 39.8086 38.21Z" fill="#243B25"/>
<path d="M32.2132 38.3166C32.2488 37.9214 32.1068 37.5971 31.7871 37.343C31.6868 37.2629 31.4261 37.1213 31.0047 36.9197C30.7399 36.7941 30.6152 36.653 30.6283 36.495C30.6508 36.2522 30.8294 36.1454 31.1636 36.1754C31.3666 36.1936 31.5686 36.2452 31.7711 36.3296C31.9422 36.4013 32.0289 36.4411 32.0332 36.4505C32.0575 36.4411 32.0777 36.4214 32.0955 36.3896L32.3079 35.9864C32.3388 35.9283 32.3543 35.8964 32.3547 35.8913C32.3627 35.805 32.2329 35.7094 31.9666 35.6035C31.8091 35.5411 31.6558 35.4947 31.5068 35.4614L31.5419 35.0649L30.8721 35.0049L30.835 35.4174C30.5922 35.4474 30.3785 35.5336 30.1961 35.6785C29.9261 35.8918 29.7757 36.1758 29.7438 36.5307C29.7185 36.8143 29.7879 37.0618 29.9538 37.2704C30.0452 37.3861 30.3185 37.5586 30.7732 37.7888C31.1355 37.9693 31.3085 38.146 31.293 38.3185C31.2705 38.5721 31.1041 38.6846 30.7947 38.6569C30.6025 38.6396 30.3714 38.5627 30.1029 38.4263C29.8333 38.2899 29.7119 38.2224 29.7372 38.2247C29.7119 38.2224 29.6899 38.2435 29.6702 38.2875L29.4644 38.7066C29.4386 38.7793 29.4236 38.8149 29.4189 38.8154C29.4241 38.9143 29.5797 39.0324 29.89 39.1697C30.0944 39.2611 30.2908 39.3282 30.4797 39.3718L30.4441 39.7702L31.1135 39.8302L31.1505 39.4205C31.3938 39.3929 31.6038 39.3075 31.781 39.1632C32.0374 38.9546 32.1813 38.6714 32.2132 38.3166Z" fill="#AAC641"/>
<path d="M43.7456 32.3613L19.9087 42.2571L15.292 31.1355L39.1284 21.2402L43.7456 32.3613Z" fill="#243B25"/>
<path d="M42.117 31.8057L20.6637 40.7125L16.918 31.6904L38.3722 22.7842L42.117 31.8057Z" fill="#AAC641"/>
<path d="M17.8719 33.9871C17.9961 33.9599 18.1198 33.9215 18.2417 33.8713C19.3573 33.4082 19.8866 32.128 19.4234 31.0124C19.3798 30.9074 19.3292 30.8071 19.272 30.7129L16.918 31.6898L17.8719 33.9871Z" fill="#243B25"/>
<path d="M19.71 38.4144C19.8173 38.345 19.9317 38.2845 20.0536 38.2344C21.1696 37.7708 22.4498 38.3 22.9129 39.4151C22.9565 39.5206 22.9917 39.627 23.0175 39.7339L20.6643 40.7112L19.71 38.4144Z" fill="#243B25"/>
<path d="M41.1638 29.5088C41.0391 29.536 40.9154 29.5744 40.794 29.625C39.6779 30.0882 39.1487 31.3683 39.6123 32.4844C39.6554 32.5894 39.706 32.6888 39.7632 32.783L42.1173 31.8057L41.1638 29.5088Z" fill="#243B25"/>
<path d="M39.327 25.0815C39.2197 25.1504 39.1058 25.2109 38.9839 25.262C37.8678 25.7251 36.5877 25.1959 36.1245 24.0803C36.0805 23.9753 36.0462 23.8684 36.0195 23.7615L38.3736 22.7842L39.327 25.0815Z" fill="#243B25"/>
<path d="M32.2249 30.6245C32.9069 32.2675 32.1278 34.1533 30.4844 34.8353C28.8414 35.5178 26.9556 34.7383 26.2731 33.0949C25.5916 31.4514 26.3702 29.5661 28.0136 28.8836C29.657 28.2016 31.5424 28.9811 32.2249 30.6245Z" fill="#243B25"/>
<path d="M24.476 33.8407C24.8477 34.7365 24.423 35.7644 23.5272 36.1366C22.6315 36.5083 21.604 36.0832 21.2322 35.1879C20.8605 34.2916 21.2852 33.2641 22.1805 32.8924C23.0768 32.5207 24.1043 32.9454 24.476 33.8407Z" fill="#243B25"/>
<path d="M37.4908 28.4388C37.8626 29.3346 37.4379 30.3621 36.5421 30.7338C35.6463 31.1055 34.6188 30.6808 34.2471 29.7855C33.8749 28.8897 34.3001 27.8618 35.1954 27.4901C36.0912 27.1183 37.1191 27.543 37.4908 28.4388Z" fill="#243B25"/>
<path d="M30.8161 32.0615C30.6637 31.6949 30.3872 31.4741 29.9864 31.3977C29.8603 31.3729 29.5636 31.3687 29.0967 31.386C28.8042 31.3977 28.6275 31.3302 28.567 31.1849C28.4728 30.959 28.5811 30.7818 28.8919 30.6529C29.0798 30.5751 29.2833 30.5263 29.5008 30.5076C29.6859 30.4916 29.7816 30.4865 29.7895 30.4926C29.8064 30.4734 29.8158 30.4462 29.8158 30.4096L29.8172 29.9545C29.8172 29.8879 29.8167 29.8532 29.8148 29.848C29.7816 29.7679 29.6222 29.7435 29.3367 29.7735C29.1684 29.7913 29.0114 29.8213 28.8633 29.8616L28.7109 29.4941L28.0898 29.752L28.2483 30.1345C28.0477 30.2741 27.8986 30.449 27.8044 30.6618C27.6647 30.9759 27.6628 31.2979 27.7992 31.6274C27.9089 31.8904 28.0856 32.0765 28.3289 32.1848C28.4639 32.2443 28.7859 32.2705 29.2955 32.263C29.7 32.2546 29.9358 32.331 30.0019 32.4904C30.0998 32.7257 30.0047 32.9029 29.7183 33.022C29.5392 33.096 29.2992 33.1349 28.9978 33.1387C28.6959 33.1429 28.5572 33.1396 28.5806 33.1302C28.5572 33.1396 28.5473 33.1687 28.5506 33.217L28.5628 33.6838C28.5736 33.7602 28.5773 33.7987 28.5727 33.801C28.6237 33.8863 28.8164 33.9187 29.1553 33.8962C29.3784 33.8816 29.5837 33.8502 29.7708 33.801L29.9241 34.1704L30.5452 33.9126L30.3877 33.5329C30.5897 33.3955 30.7369 33.2226 30.8264 33.0126C30.9562 32.7084 30.953 32.3905 30.8161 32.0615Z" fill="#AAC641"/>
<mask id="mask1_2181_9010" style="mask-type:luminance" maskUnits="userSpaceOnUse" x="13" y="14" width="27" height="28">
<path d="M13.3848 14.4121H39.9802V41.5602H13.3848V14.4121Z" fill="white"/>
</mask>
<g mask="url(#mask1_2181_9010)">
<path d="M39.8623 22.678L22.144 41.4439L13.3887 33.1771L31.1065 14.4111L39.8623 22.678Z" fill="#243B25"/>
</g>
<path d="M38.15 22.8339L22.2031 39.7243L15.1006 33.0184L31.0475 16.1279L38.15 22.8339Z" fill="#AAC641"/>
<path d="M16.909 34.7266C17.0117 34.6512 17.1087 34.5659 17.1992 34.4698C18.0289 33.5918 17.989 32.2066 17.1106 31.3774C17.0276 31.2996 16.9409 31.2288 16.85 31.166L15.1006 33.0195L16.909 34.7266Z" fill="#243B25"/>
<path d="M20.3945 38.0166C20.4648 37.9098 20.5445 37.808 20.6345 37.7124C21.4642 36.8335 22.8489 36.7941 23.7273 37.6229C23.8103 37.7012 23.8853 37.7846 23.9528 37.8713L22.2034 39.7243L20.3945 38.0166Z" fill="#243B25"/>
<path d="M36.3414 21.1279C36.2392 21.2039 36.1417 21.2892 36.0513 21.3853C35.2216 22.2637 35.2614 23.6484 36.1399 24.4781C36.2228 24.5559 36.3095 24.6262 36.4005 24.689L38.1499 22.8356L36.3414 21.1279Z" fill="#243B25"/>
<path d="M32.8571 17.8356C32.7873 17.942 32.7076 18.0446 32.6176 18.1403C31.7874 19.0187 30.4027 19.0586 29.5243 18.2293C29.4418 18.1511 29.3668 18.0681 29.2988 17.9814L31.0482 16.1279L32.8571 17.8356Z" fill="#243B25"/>
<path d="M28.6369 25.7962C29.9311 27.0177 29.9892 29.0568 28.7681 30.3506C27.5461 31.6443 25.507 31.7034 24.2133 30.4813C22.9195 29.2598 22.8605 27.2212 24.0825 25.927C25.3041 24.6332 27.3431 24.5746 28.6369 25.7962Z" fill="#243B25"/>
<path d="M22.8789 31.896C23.5839 32.5621 23.6163 33.6735 22.9497 34.379C22.2841 35.084 21.1727 35.1159 20.4677 34.4498C19.7622 33.7842 19.7303 32.6727 20.3964 31.9677C21.0621 31.2623 22.1735 31.2304 22.8789 31.896Z" fill="#243B25"/>
<path d="M32.5514 21.6504C33.2568 22.316 33.2887 23.4274 32.6226 24.1329C31.957 24.8384 30.8456 24.8698 30.1401 24.2041C29.4351 23.5385 29.4032 22.4271 30.0693 21.7212C30.735 21.0162 31.8464 20.9843 32.5514 21.6504Z" fill="#243B25"/>
<path d="M27.9376 27.6833C27.6488 27.4109 27.3062 27.3219 26.9091 27.4161C26.7835 27.4452 26.5112 27.5624 26.0921 27.7691C25.8296 27.8989 25.6407 27.9097 25.5259 27.8019C25.3482 27.6336 25.3749 27.4278 25.6055 27.1836C25.7452 27.0355 25.9107 26.908 26.1024 26.8016C26.2646 26.7116 26.3499 26.668 26.3598 26.6703C26.3673 26.6459 26.3645 26.6174 26.3504 26.5836L26.1652 26.1678C26.138 26.1074 26.1235 26.0755 26.1193 26.0717C26.0565 26.0127 25.9009 26.0549 25.6534 26.1988C25.5062 26.2836 25.3754 26.3759 25.2568 26.4725L24.9676 26.1992L24.5059 26.6886L24.8068 26.9731C24.6802 27.1822 24.6155 27.403 24.617 27.6355C24.6174 27.9795 24.7477 28.2739 25.007 28.5186C25.2137 28.7145 25.4509 28.812 25.7176 28.8116C25.8648 28.8111 26.1695 28.7033 26.6316 28.4881C26.9973 28.3152 27.2434 28.2889 27.3695 28.4075C27.5546 28.5824 27.5405 28.7825 27.3273 29.0084C27.1946 29.1486 26.9912 29.2827 26.7179 29.4097C26.4437 29.5363 26.3157 29.5902 26.3335 29.5719C26.3157 29.5902 26.3185 29.6206 26.3415 29.6633L26.5426 30.0847C26.5838 30.1494 26.603 30.1836 26.6002 30.1874C26.6809 30.2445 26.8702 30.1953 27.1707 30.0369C27.368 29.9324 27.5429 29.8194 27.6938 29.6984L27.9845 29.9727L28.4462 29.4838L28.1471 29.2011C28.2755 28.9934 28.3393 28.7755 28.3346 28.5472C28.3295 28.2163 28.1968 27.9284 27.9376 27.6833Z" fill="#AAC641"/>
</svg>
