<svg width="59" height="59" viewBox="0 0 59 59" fill="none" xmlns="http://www.w3.org/2000/svg">
<circle cx="29.5" cy="29.5" r="29.5" fill="#F9B420"/>
<path d="M24.6045 33.2168C21.7334 31.5557 19.7998 28.4502 19.7998 24.8936C19.7998 19.5879 24.1035 15.2842 29.4092 15.2842C34.7148 15.2842 39.0186 19.5879 39.0186 24.8936C39.0186 28.4502 37.085 31.5557 34.2139 33.2168V36.6123C34.2139 37.1309 33.7949 37.5498 33.2764 37.5498H25.542C25.0234 37.5498 24.6045 37.1309 24.6045 36.6123V33.2168ZM25.8936 39.4248H32.9248C33.0537 39.4248 33.1592 39.5303 33.1592 39.6592V40.5967C33.1592 41.1152 32.7402 41.5342 32.2217 41.5342H26.5967C26.0781 41.5342 25.6592 41.1152 25.6592 40.5967V39.6592C25.6592 39.5303 25.7646 39.4248 25.8936 39.4248Z" fill="#243B25"/>
</svg>
